<svg width="296" height="200" viewBox="0 0 296 200" fill="none" xmlns="http://www.w3.org/2000/svg">
<rect x="27.5" y="15.5" width="240" height="169" rx="2.5" fill="white" stroke="#EAE6E5" stroke-width="3"/>
<rect x="41.084" y="28.1889" width="214.342" height="143.623" rx="2.5" fill="white" stroke="#EAE6E5" stroke-width="3"/>
<path d="M101.475 68.279C101.475 79.4247 91.7709 88.6315 79.5809 88.6315C67.391 88.6315 57.6865 79.4247 57.6865 68.279C57.6865 57.1333 67.391 47.9265 79.5809 47.9265C91.7709 47.9265 101.475 57.1333 101.475 68.279Z" fill="white" stroke="#EAE6E5" stroke-width="3"/>
<path d="M133.574 88.2779L98.4338 130.399C95.9191 133.413 91.589 134.158 88.2121 132.156L53.862 111.798C48.5292 108.638 41.7832 112.481 41.7832 118.68V171.257H254.856V125.8L226.824 107.279C224.365 105.654 221.21 105.513 218.615 106.913L188.843 122.978C185.738 124.654 181.902 124.097 179.401 121.608L145.36 87.7322C142.032 84.4206 136.581 84.673 133.574 88.2779Z" fill="white" stroke="#EAE6E5" stroke-width="3"/>
<mask id="path-5-inside-1_1325_3507" fill="white">
<path fill-rule="evenodd" clip-rule="evenodd" d="M217.926 52.0858C224.896 52.0858 230.877 56.6806 233.433 63.2297C234.088 64.9088 235.578 66.165 237.325 66.6098C242.541 67.9382 246.822 71.8977 248.912 77.1265C249.816 79.3861 247.919 81.5713 245.486 81.5713H189.897C187.577 81.5713 185.707 79.5803 186.37 77.3575C188.22 71.1483 193.055 66.3942 199.04 65.0839C200.725 64.715 202.198 63.593 202.934 62.0333C205.721 56.1279 211.388 52.0858 217.926 52.0858Z"/>
</mask>
<path fill-rule="evenodd" clip-rule="evenodd" d="M217.926 52.0858C224.896 52.0858 230.877 56.6806 233.433 63.2297C234.088 64.9088 235.578 66.165 237.325 66.6098C242.541 67.9382 246.822 71.8977 248.912 77.1265C249.816 79.3861 247.919 81.5713 245.486 81.5713H189.897C187.577 81.5713 185.707 79.5803 186.37 77.3575C188.22 71.1483 193.055 66.3942 199.04 65.0839C200.725 64.715 202.198 63.593 202.934 62.0333C205.721 56.1279 211.388 52.0858 217.926 52.0858Z" fill="white"/>
<path d="M186.37 77.3575L183.494 76.5007L186.37 77.3575ZM233.433 63.2297L230.638 64.3204L233.433 63.2297ZM237.325 66.6098L236.585 69.517L237.325 66.6098ZM236.228 62.1389C233.281 54.5903 226.287 49.0858 217.926 49.0858V55.0858C223.505 55.0858 228.472 58.771 230.638 64.3204L236.228 62.1389ZM251.698 76.013C249.285 69.977 244.294 65.2889 238.065 63.7026L236.585 69.517C240.788 70.5874 244.359 73.8183 246.127 78.24L251.698 76.013ZM189.897 84.5713H245.486V78.5713H189.897V84.5713ZM198.398 62.1533C191.243 63.7196 185.625 69.3507 183.494 76.5007L189.245 78.2142C190.815 72.9458 194.866 69.0687 199.682 68.0145L198.398 62.1533ZM217.926 49.0858C210.087 49.0858 203.441 53.9306 200.221 60.7528L205.647 63.3139C208.001 58.3252 212.689 55.0858 217.926 55.0858V49.0858ZM199.682 68.0145C202.223 67.458 204.491 65.762 205.647 63.3139L200.221 60.7528C199.904 61.424 199.226 61.9721 198.398 62.1533L199.682 68.0145ZM189.897 78.5713C189.588 78.5713 189.372 78.4365 189.278 78.329C189.237 78.2812 189.233 78.2555 189.234 78.2612C189.237 78.2755 189.228 78.2685 189.245 78.2142L183.494 76.5007C182.119 81.1164 186.088 84.5713 189.897 84.5713V78.5713ZM246.127 78.24C246.15 78.2989 246.138 78.3003 246.143 78.2718C246.146 78.2537 246.148 78.2718 246.111 78.318C246.026 78.4241 245.81 78.5713 245.486 78.5713V84.5713C247.595 84.5713 249.544 83.6259 250.79 82.0745C252.073 80.4761 252.585 78.2329 251.698 76.013L246.127 78.24ZM230.638 64.3204C231.666 66.9544 233.957 68.8479 236.585 69.517L238.065 63.7026C237.199 63.482 236.51 62.8633 236.228 62.1389L230.638 64.3204Z" fill="#EAE6E5" mask="url(#path-5-inside-1_1325_3507)"/>
<mask id="path-7-inside-2_1325_3507" fill="white">
<path fill-rule="evenodd" clip-rule="evenodd" d="M173.985 87.7152C175.697 87.7152 177.24 88.4015 178.325 89.4998C179.568 90.7584 181.083 92.0044 182.607 92.9022C182.678 92.9439 182.748 92.987 182.817 93.0314C184.888 94.3688 183.114 96.8316 180.648 96.8316H166.898C164.563 96.8316 162.734 94.6012 164.505 93.08C164.852 92.7826 165.235 92.5235 165.648 92.3094C167.134 91.5395 168.604 90.4551 169.833 89.3183C170.905 88.3264 172.37 87.7152 173.985 87.7152Z"/>
</mask>
<path fill-rule="evenodd" clip-rule="evenodd" d="M173.985 87.7152C175.697 87.7152 177.24 88.4015 178.325 89.4998C179.568 90.7584 181.083 92.0044 182.607 92.9022C182.678 92.9439 182.748 92.987 182.817 93.0314C184.888 94.3688 183.114 96.8316 180.648 96.8316H166.898C164.563 96.8316 162.734 94.6012 164.505 93.08C164.852 92.7826 165.235 92.5235 165.648 92.3094C167.134 91.5395 168.604 90.4551 169.833 89.3183C170.905 88.3264 172.37 87.7152 173.985 87.7152Z" fill="white"/>
<path d="M164.505 93.08L162.551 90.8038L164.505 93.08ZM180.459 87.3914C178.816 85.7284 176.507 84.7152 173.985 84.7152V90.7152C174.887 90.7152 175.663 91.0745 176.191 91.6083L180.459 87.3914ZM184.444 90.511C184.34 90.4443 184.236 90.3796 184.129 90.3171L181.085 95.4872C181.12 95.5081 181.155 95.5297 181.19 95.5519L184.444 90.511ZM166.898 99.8316H180.648V93.8316H166.898V99.8316ZM164.268 89.6457C163.65 89.966 163.074 90.355 162.551 90.8038L166.46 95.3562C166.63 95.2102 166.82 95.0809 167.028 94.9731L164.268 89.6457ZM173.985 84.7152C171.605 84.7152 169.415 85.6176 167.795 87.1165L171.87 91.5201C172.394 91.0351 173.134 90.7152 173.985 90.7152V84.7152ZM167.028 94.9731C168.795 94.0578 170.482 92.8048 171.87 91.5201L167.795 87.1165C166.727 88.1053 165.474 89.0211 164.268 89.6457L167.028 94.9731ZM166.898 93.8316C166.789 93.8316 166.689 93.8044 166.617 93.7687C166.535 93.7283 166.552 93.7108 166.613 93.7964C166.677 93.8874 166.831 94.1692 166.789 94.5987C166.744 95.0646 166.506 95.316 166.46 95.3562L162.551 90.8038C161.619 91.6045 160.945 92.7052 160.818 94.0172C160.693 95.2927 161.119 96.4174 161.711 97.2561C162.851 98.8723 164.847 99.8316 166.898 99.8316V93.8316ZM181.19 95.5519C181.191 95.5529 181.11 95.5005 181.01 95.3663C180.906 95.2266 180.809 95.0323 180.76 94.7958C180.659 94.3048 180.819 93.9557 180.895 93.8348C180.967 93.7209 181.002 93.7289 180.927 93.7683C180.864 93.8014 180.767 93.8316 180.648 93.8316V99.8316C182.809 99.8316 184.878 98.77 185.973 97.0313C186.542 96.1275 186.911 94.912 186.637 93.583C186.356 92.2227 185.494 91.1888 184.444 90.511L181.19 95.5519ZM176.191 91.6083C177.575 93.0089 179.29 94.4305 181.085 95.4872L184.129 90.3171C182.875 89.5784 181.562 88.5079 180.459 87.3914L176.191 91.6083Z" fill="#EAE6E5" mask="url(#path-7-inside-2_1325_3507)"/>
<mask id="path-9-inside-3_1325_3507" fill="white">
<path fill-rule="evenodd" clip-rule="evenodd" d="M142.802 49C145.846 49 148.528 50.4734 150.098 52.7098C151.114 54.1576 152.588 55.3773 154.235 56.0236C155.503 56.5214 156.621 57.2937 157.507 58.2624C159.171 60.0819 157.308 62.429 154.842 62.429H130.313C127.978 62.429 126.1 60.3112 127.457 58.4108C128.486 56.9703 129.978 55.8523 131.731 55.2499C133.314 54.7061 134.753 53.6396 135.791 52.3271C137.389 50.3069 139.935 49 142.802 49Z"/>
</mask>
<path fill-rule="evenodd" clip-rule="evenodd" d="M142.802 49C145.846 49 148.528 50.4734 150.098 52.7098C151.114 54.1576 152.588 55.3773 154.235 56.0236C155.503 56.5214 156.621 57.2937 157.507 58.2624C159.171 60.0819 157.308 62.429 154.842 62.429H130.313C127.978 62.429 126.1 60.3112 127.457 58.4108C128.486 56.9703 129.978 55.8523 131.731 55.2499C133.314 54.7061 134.753 53.6396 135.791 52.3271C137.389 50.3069 139.935 49 142.802 49Z" fill="white"/>
<path d="M152.553 50.9859C150.421 47.9488 146.822 46 142.802 46V52C144.87 52 146.635 52.9981 147.643 54.4337L152.553 50.9859ZM159.721 56.2377C158.523 54.9284 157.022 53.8948 155.331 53.231L153.139 58.8162C153.984 59.148 154.719 59.659 155.294 60.2872L159.721 56.2377ZM130.313 65.429H154.842V59.429H130.313V65.429ZM130.757 52.4127C128.423 53.2147 126.414 54.71 125.016 56.6673L129.898 60.1544C130.558 59.2305 131.534 58.4898 132.706 58.0871L130.757 52.4127ZM142.802 46C139.014 46 135.603 47.729 133.438 50.4657L138.144 54.1884C139.175 52.8847 140.855 52 142.802 52V46ZM132.706 58.0871C134.877 57.3414 136.779 55.9131 138.144 54.1884L133.438 50.4657C132.726 51.3662 131.752 52.0709 130.757 52.4127L132.706 58.0871ZM130.313 59.429C130.18 59.429 130.062 59.3983 129.972 59.3558C129.876 59.3107 129.855 59.2731 129.876 59.3001C129.9 59.3319 129.988 59.4671 129.999 59.7009C130.004 59.815 129.989 59.9228 129.961 60.0136C129.933 60.1031 129.902 60.1496 129.898 60.1544L125.016 56.6673C123.489 58.8053 123.812 61.2636 125.125 62.965C126.326 64.5225 128.286 65.429 130.313 65.429V59.429ZM155.294 60.2872C155.298 60.2918 155.26 60.2512 155.22 60.1588C155.179 60.0643 155.148 59.9449 155.143 59.8118C155.131 59.5372 155.226 59.3648 155.26 59.3154C155.29 59.2721 155.28 59.3059 155.188 59.3522C155.103 59.3949 154.983 59.429 154.842 59.429V65.429C156.98 65.429 159.017 64.4225 160.186 62.7407C160.787 61.877 161.19 60.7767 161.137 59.5503C161.082 58.2982 160.561 57.1562 159.721 56.2377L155.294 60.2872ZM147.643 54.4337C148.965 56.3169 150.893 57.9349 153.139 58.8162L155.331 53.231C154.283 52.8196 153.264 51.9983 152.553 50.9859L147.643 54.4337Z" fill="#EAE6E5" mask="url(#path-9-inside-3_1325_3507)"/>
</svg>
