<svg width="152" height="20" viewBox="0 0 152 20" fill="none" xmlns="http://www.w3.org/2000/svg">
<path d="M12.52 1V3.88H14.92V1H12.52ZM10.14 6.22C9.7 6.92 8.9 7.62 8.08 8.12C8.52 8.38 9.32 8.9 9.68 9.22C10.5 8.62 11.44 7.66 12.02 6.76L10.14 6.22ZM16.94 6.24C15.04 7.8 11.4 8.96 8.08 9.56C8.52 9.94 9.2 10.76 9.52 11.2C12.76 10.38 16.56 9.02 18.82 7.1L16.94 6.24ZM8.1 2.46V6.02H10.18V4.12H17.46V6.02H19.64V2.46H8.1ZM10.76 4.74V6.22H16.82V4.74H10.76ZM12.6 5.34V9.06L14.72 8.62V5.34H12.6ZM11.72 12.72H16.72V13.42H11.72V12.72ZM11.72 14.7H16.72V15.4H11.72V14.7ZM11.72 10.76H16.72V11.44H11.72V10.76ZM9.64 9.4V16.76H18.9V9.4H9.64ZM14.78 17.66C16.02 18.3 17.42 19.18 18.2 19.8L20.14 18.58C19.22 17.96 17.62 17.08 16.26 16.46L14.78 17.66ZM11.72 16.38C10.82 17.08 9.02 17.94 7.5 18.36C7.96 18.76 8.6 19.42 8.96 19.84C10.48 19.38 12.38 18.48 13.54 17.6L11.72 16.38ZM4 1.04C3.56 2.42 2.68 4.36 1.98 5.56L3.56 6.18C4.32 5.04 5.26 3.26 6.06 1.7L4 1.04ZM6.08 3.4C5.12 5.54 3.46 8.46 2.06 10.26L3.44 10.98C4.88 9.28 6.66 6.48 8.04 4.22L6.08 3.4ZM1 5.72C2 6.72 3.16 8.14 3.6 9.1L4.88 7.26C4.42 6.34 3.2 5.04 2.18 4.1L1 5.72ZM5.5 8.02C6.16 9.44 6.74 11.26 6.88 12.42L8.58 11.76C8.42 10.62 7.78 8.84 7.08 7.46L5.5 8.02ZM1.02 9.92L1.26 11.92C3.02 11.8 5.26 11.64 7.44 11.46V9.6C5.06 9.72 2.68 9.86 1.02 9.92ZM5.92 13.14C6.28 14.18 6.64 15.54 6.78 16.44L8.42 15.88C8.26 15.02 7.88 13.7 7.5 12.68L5.92 13.14ZM1.76 12.78C1.62 14.46 1.32 16.26 0.76 17.44C1.22 17.62 2.08 18 2.46 18.26C3.02 16.98 3.42 15 3.64 13.1L1.76 12.78ZM3.86 10.86V19.8H5.86V10.86H3.86ZM33 1.18C32.56 3.98 31.58 6.56 29.96 8.08C30.52 8.44 31.52 9.22 31.92 9.66C33.64 7.8 34.84 4.84 35.44 1.56L33 1.18ZM38.86 1.04L36.66 1.64C37.46 4.78 38.76 8 40.32 10.02C40.74 9.38 41.6 8.5 42.18 8.06C40.78 6.42 39.5 3.62 38.86 1.04ZM26.1 1.04C25.64 2.44 24.78 4.36 24.06 5.56L25.68 6.22C26.46 5.12 27.4 3.34 28.22 1.78L26.1 1.04ZM28.5 3.4C27.44 5.54 25.62 8.48 24.08 10.28L25.54 11.02C27.08 9.32 29.04 6.54 30.52 4.24L28.5 3.4ZM23.02 5.78C24.04 6.74 25.26 8.12 25.76 9.08L26.98 7.2C26.46 6.32 25.22 5.04 24.14 4.12L23.02 5.78ZM28 8.22C28.76 9.6 29.5 11.42 29.74 12.56L31.56 11.72C31.3 10.56 30.5 8.82 29.7 7.48L28 8.22ZM23 9.84L23.2 11.92C25.18 11.8 27.78 11.62 30.3 11.42V9.52C27.62 9.66 24.86 9.78 23 9.84ZM28.36 13.24C28.84 14.46 29.36 16.08 29.54 17.12L31.42 16.44C31.18 15.42 30.64 13.86 30.12 12.66L28.36 13.24ZM23.86 12.78C23.7 14.48 23.38 16.26 22.8 17.44C23.3 17.64 24.2 18.06 24.62 18.32C25.2 17.04 25.64 15.04 25.84 13.12L23.86 12.78ZM26.18 10.9V19.82H28.32V10.9H26.18ZM31.84 8.86V11.02H39.16V8.86H31.84ZM38.46 8.86V9.28C38.28 14.82 38.06 16.88 37.66 17.36C37.48 17.6 37.3 17.64 37 17.64C36.64 17.64 35.94 17.62 35.16 17.56C35.52 18.16 35.78 19.1 35.82 19.74C36.72 19.78 37.6 19.76 38.14 19.68C38.76 19.58 39.2 19.4 39.64 18.82C40.24 18.06 40.48 15.78 40.7 9.82C40.72 9.52 40.74 8.86 40.74 8.86H38.46ZM33.82 10C33.66 13.8 33.34 16.54 29.9 18.08C30.38 18.48 30.98 19.28 31.24 19.82C35.26 17.94 35.84 14.56 36.06 10H33.82ZM54.52 8.94H61.26V11.12H54.52V8.94ZM52.72 7.48V12.6H63.18V7.48H52.72ZM56.96 7.98V11.84H58.66V7.98H56.96ZM59.68 8.92C59.52 9.42 59.16 10.22 58.9 10.74L59.92 11.08C60.22 10.62 60.6 9.96 61 9.3L59.68 8.92ZM54.8 9.38C55.08 9.92 55.34 10.64 55.42 11.12L56.6 10.7C56.5 10.24 56.22 9.54 55.92 9.02L54.8 9.38ZM57.84 3.12C59.02 4.64 61.1 6.54 62.9 7.62C63.26 6.94 63.8 6.08 64.26 5.54C62.3 4.6 60.26 2.78 58.86 1H56.68C55.66 2.66 53.54 4.92 51.38 6.12C51.8 6.62 52.32 7.5 52.58 8.08C54.74 6.78 56.74 4.7 57.84 3.12ZM55.26 5.02V6.64H60.62V5.02H55.26ZM54.5 17.82V19.32H61.08V17.82H54.5ZM54.56 15.58V17H61.14V15.58H54.56ZM53.42 13.26V19.92H55.52V14.78H60.22V19.86H62.4V13.26H53.42ZM48.08 1.04C47.64 2.42 46.78 4.36 46.08 5.56L47.64 6.2C48.38 5.08 49.3 3.3 50.1 1.74L48.08 1.04ZM50.22 3.4C49.24 5.54 47.52 8.46 46.1 10.26L47.44 11C48.9 9.3 50.72 6.52 52.12 4.26L50.22 3.4ZM44.98 5.64C45.98 6.64 47.16 8.06 47.6 9.04L48.86 7.24C48.38 6.34 47.18 5.02 46.16 4.06L44.98 5.64ZM49.62 8.1C50.32 9.52 50.96 11.4 51.12 12.56L52.8 11.84C52.62 10.66 51.92 8.84 51.2 7.46L49.62 8.1ZM44.92 9.8L45.18 11.86C46.96 11.72 49.28 11.56 51.5 11.38L51.48 9.4C49.08 9.56 46.64 9.72 44.92 9.8ZM49.94 13.18C50.4 14.34 50.78 15.86 50.86 16.86L52.54 16.32C52.42 15.34 52.02 13.84 51.54 12.7L49.94 13.18ZM45.78 12.78C45.62 14.46 45.32 16.26 44.76 17.44C45.22 17.62 46.06 18 46.44 18.26C47 16.98 47.44 15 47.64 13.1L45.78 12.78ZM47.84 10.86V19.8H49.86V10.86H47.84ZM67.54 10.2V12.36H77.74V10.2H67.54ZM71.7 8.42V19.74H74.04V8.42H71.7ZM71.72 11.06C70.72 13.08 68.68 15.36 66.82 16.5C67.32 17.04 67.94 18 68.26 18.64C70.22 17.12 72.38 14.48 73.56 12.18L71.72 11.06ZM76.72 1.2C74.26 1.86 70.46 2.38 67.1 2.68C67.36 3.2 67.66 4.08 67.72 4.64C71.14 4.42 75.16 3.96 78.14 3.22L76.72 1.2ZM67.5 5.88C68.24 6.82 68.94 8.14 69.2 9.02L71.06 8.12C70.76 7.24 70.04 6 69.28 5.08L67.5 5.88ZM71.1 5.14C71.66 6.08 72.18 7.34 72.36 8.2L74.32 7.5C74.1 6.68 73.54 5.46 72.96 4.56L71.1 5.14ZM75.86 4.58C75.52 5.74 74.88 7.34 74.32 8.4L76.16 8.94C76.76 8 77.54 6.52 78.2 5.16L75.86 4.58ZM82.86 1.34C81.82 2.88 79.74 4.44 78 5.34C78.64 5.82 79.36 6.58 79.78 7.14C81.76 5.96 83.84 4.24 85.28 2.3L82.86 1.34ZM83.28 6.84C82.14 8.42 79.94 10 78.14 10.92C78.78 11.38 79.52 12.16 79.92 12.7C81.94 11.52 84.12 9.76 85.62 7.82L83.28 6.84ZM83.72 12.38C82.36 14.74 79.7 16.64 77.02 17.72C77.66 18.28 78.36 19.14 78.74 19.8C81.72 18.34 84.4 16.18 86.14 13.32L83.72 12.38ZM72.96 13.26C74.28 14.32 75.68 15.9 76.32 16.96L77.9 15.38C77.24 14.34 75.82 12.9 74.44 11.88L72.96 13.26ZM93.78 0.919999C92.74 3.62 90.92 6.28 88.88 7.88C89.5 8.26 90.54 9.14 91 9.62C93.04 7.72 95.06 4.72 96.32 1.64L93.78 0.919999ZM94.18 3.24L93.04 5.5H104.82V3.24H94.18ZM104.1 3.24V3.7C103.96 9.7 103.78 11.84 103.4 12.34C103.24 12.56 103.04 12.64 102.74 12.64C102.38 12.64 101.7 12.64 100.94 12.54C101.3 13.18 101.56 14.14 101.58 14.84C102.58 14.84 103.48 14.86 104.04 14.74C104.68 14.64 105.14 14.44 105.56 13.84C106.14 13.06 106.32 10.64 106.5 4.26C106.52 3.94 106.52 3.24 106.52 3.24H104.1ZM93.08 11.54V13.66H100.92V7.02H92.7V9.12H98.56V11.54H93.08ZM92 11.54V16.46C92 18.98 93.08 19.64 96.82 19.64C97.66 19.64 102.38 19.64 103.24 19.64C106.44 19.64 107.24 18.9 107.64 15.84C106.96 15.72 105.92 15.34 105.34 15C105.14 17.06 104.86 17.4 103.16 17.4C101.94 17.4 97.8 17.4 96.86 17.4C94.74 17.4 94.38 17.26 94.38 16.42V11.54H92ZM119.36 10.36V12.92H121.8V10.36H119.36ZM118.98 12.22C117.38 13.64 114.16 14.7 111.02 15.18C111.44 15.6 112.02 16.38 112.3 16.88C115.6 16.28 118.9 14.9 120.84 13.02L118.98 12.22ZM122.06 12.26L120.04 12.68C121.54 16.56 124.12 18.88 128.64 19.86C128.9 19.26 129.5 18.38 129.98 17.92C125.84 17.22 123.24 15.3 122.06 12.26ZM127.1 13.26C126.16 14.02 124.56 15 123.38 15.58L124.82 16.74C126.02 16.22 127.58 15.38 128.82 14.52L127.1 13.26ZM113.2 17.58L113.5 19.56C115.8 19.26 118.98 18.84 121.96 18.42L121.88 16.54C118.74 16.94 115.4 17.36 113.2 17.58ZM111.38 11.66V13.46H129.62V11.66H111.38ZM119.24 3.5V5.5H129.48V3.5H119.24ZM119.74 7.96V9.96H129.04V7.96H119.74ZM116.38 1.02V10.98H118.64V1.02H116.38ZM123.14 1.02V9.18H125.52V1.02H123.14ZM112.28 1.26V5.38H114.3V1.26H112.28ZM113.3 3.24V5.06H117.52V3.24H113.3ZM111.36 6.16V7.98H117.5V6.16H111.36ZM112.84 6.82C112.76 8.3 112.5 9.34 111 9.98C111.44 10.32 112 11.06 112.22 11.54C114.4 10.6 114.88 9 115.02 6.82H112.84ZM115.68 14.98V18.32H117.96V14.44L116.58 14.08L115.68 14.98ZM138.6 4.98V6.68H146.38V4.98H138.6ZM142.5 3.02C144.32 4.76 147.64 6.64 150.28 7.62C150.64 6.96 151.2 6.12 151.72 5.58C148.76 4.76 145.72 3.14 143.54 1.08H141.24C139.66 2.84 136.5 4.86 133.34 5.92C133.8 6.42 134.36 7.32 134.62 7.86C137.7 6.66 140.78 4.74 142.5 3.02ZM138.66 9.14H146.24V10.26H138.66V9.14ZM136.52 7.52V11.86H148.5V7.52H136.52ZM133.32 17.18V19.26H151.64V17.18H133.32ZM135.46 12.78V18.24H137.7V14.64H139.38V18.24H141.58V14.64H143.28V18.24H145.48V14.64H147.22V18.24H149.58V12.78H135.46Z" fill="#171614"/>
</svg>
