<svg width="108" height="20" viewBox="0 0 108 20" fill="none" xmlns="http://www.w3.org/2000/svg">
<path d="M1.98 6.24V19.78H4.16V6.24H1.98ZM6.2 12.4V18.74H8.34V12.4H6.2ZM7.16 12.4V13.74H11.68V16.72H7.16V18.04H13.78V12.4H7.16ZM3.14 6.24V7.64H7.32V10.26H3.14V11.64H9.48V6.24H3.14ZM3.16 8.3V9.58H7.94V8.3H3.16ZM7.16 14.56V15.86H12.64V14.56H7.16ZM11.98 8.3V9.58H16.88V8.3H11.98ZM16.6 6.24H10.66V11.64H16.6V10.26H12.82V7.64H16.6V6.24ZM16.06 6.24V17.36C16.06 17.64 15.96 17.72 15.66 17.74C15.36 17.74 14.34 17.76 13.44 17.7C13.72 18.28 14.02 19.18 14.1 19.78C15.58 19.8 16.64 19.76 17.36 19.42C18.08 19.08 18.3 18.5 18.3 17.38V6.24H16.06ZM3.4 2.44V4.24H9.7V2.44H3.4ZM11.44 2.44V4.24H19.12V2.44H11.44ZM3.48 0.859999C2.86 2.36 1.74 3.88 0.52 4.86C1.06 5.16 2.02 5.78 2.48 6.16C3.66 5.04 4.94 3.24 5.72 1.46L3.48 0.859999ZM11.66 0.859999C11.06 2.38 9.9 3.88 8.6 4.84C9.18 5.08 10.2 5.62 10.7 5.96C11.9 4.9 13.2 3.18 13.94 1.42L11.66 0.859999ZM4.14 3.94C4.58 4.62 5.06 5.54 5.24 6.12L7.32 5.54C7.1 4.94 6.58 4.06 6.12 3.42L4.14 3.94ZM13.1 3.94C13.66 4.62 14.26 5.56 14.52 6.16L16.66 5.56C16.36 4.94 15.7 4.02 15.14 3.38L13.1 3.94ZM31.86 10.08C32.88 11.52 33.94 13.46 34.3 14.7L36.4 13.62C35.96 12.34 34.82 10.48 33.78 9.1L31.86 10.08ZM32.52 4.42V6.68H39.7V4.42H32.52ZM38.68 4.42V4.9C38.44 13.04 38.16 16.42 37.5 17.1C37.28 17.38 37.04 17.44 36.64 17.44C36.12 17.44 34.96 17.44 33.7 17.34C34.14 18.02 34.46 19.06 34.5 19.74C35.68 19.8 36.9 19.8 37.64 19.7C38.48 19.56 39.02 19.34 39.58 18.58C40.42 17.52 40.68 14.34 40.98 5.52C41 5.22 41 4.42 41 4.42H38.68ZM32.64 1C31.98 3.62 30.76 6.24 29.24 7.82C29.84 8.16 30.9 8.88 31.38 9.28C32.9 7.46 34.28 4.52 35.12 1.54L32.64 1ZM25.6 1.04C25.14 2.44 24.28 4.36 23.56 5.56L25.18 6.22C25.96 5.12 26.9 3.34 27.72 1.78L25.6 1.04ZM28 3.4C26.94 5.54 25.12 8.48 23.58 10.28L25.04 11.02C26.58 9.32 28.54 6.54 30.02 4.24L28 3.4ZM22.52 5.78C23.54 6.74 24.76 8.12 25.26 9.08L26.48 7.2C25.96 6.32 24.72 5.04 23.64 4.12L22.52 5.78ZM27.5 8.22C28.26 9.6 29 11.42 29.24 12.56L31.06 11.72C30.8 10.56 30 8.82 29.2 7.48L27.5 8.22ZM22.5 9.84L22.7 11.92C24.68 11.8 27.28 11.62 29.8 11.42V9.52C27.12 9.66 24.36 9.78 22.5 9.84ZM27.86 13.24C28.34 14.46 28.86 16.08 29.04 17.12L30.92 16.44C30.68 15.42 30.14 13.86 29.62 12.66L27.86 13.24ZM23.36 12.78C23.2 14.48 22.88 16.26 22.3 17.44C22.8 17.64 23.7 18.06 24.12 18.32C24.7 17.04 25.14 15.04 25.34 13.12L23.36 12.78ZM25.68 10.9V19.82H27.82V10.9H25.68ZM48.76 3.94V6.2H53.66V3.94H48.76ZM57.14 1.06V19.76H59.64V1.06H57.14ZM46.56 9.86C48.06 10.76 49.96 12.16 50.82 13.16L52.1 11.12C51.2 10.18 49.26 8.88 47.76 8.06L46.56 9.86ZM49.02 1C48.14 4.62 46.5 7.98 44.3 9.98C44.86 10.34 45.88 11.12 46.3 11.54C48.54 9.22 50.34 5.52 51.4 1.5L49.02 1ZM55.9 5.88L53.86 6.62C55.72 10.2 58.72 13.46 62.08 15.24C62.48 14.6 63.24 13.64 63.82 13.14C60.56 11.7 57.46 8.82 55.9 5.88ZM53 3.94V4.48C52.06 11.24 49.14 15.6 44.88 17.84C45.46 18.2 46.38 19.1 46.78 19.64C51.1 17.18 54.26 12.12 55.44 4.38L53.86 3.86L53.44 3.94H53ZM67.32 8.96V13.32H69.54V10.9H82.48V13.32H84.82V8.96H67.32ZM73.08 1.28V8.2H79.02V1.28H76.84V6.44H75.16V1.28H73.08ZM67.08 3.2V5.06H84.98V3.2H67.08ZM80.14 1.24V6.06C80.14 7.84 80.5 8.4 82.14 8.4C82.46 8.4 83.04 8.4 83.36 8.4C84.56 8.4 85.08 7.84 85.28 5.96C84.7 5.84 83.88 5.52 83.46 5.22C83.42 6.4 83.36 6.62 83.1 6.62C83 6.62 82.66 6.62 82.56 6.62C82.32 6.62 82.28 6.56 82.28 6.06V1.24H80.14ZM69.8 1.24V3.94C69.8 5.08 69.48 6.54 67.22 7.32C67.68 7.68 68.28 8.38 68.56 8.84C71.28 7.68 71.96 5.72 71.96 3.94V1.24H69.8ZM74.72 10.58V19.8H77.08V10.58H74.72ZM69.28 12.4V18.62H71.6V14.3H81.46V12.4H69.28ZM80.54 12.4V16.42C80.54 16.64 80.46 16.7 80.16 16.7C79.9 16.7 78.82 16.7 77.94 16.66C78.24 17.24 78.58 18.12 78.68 18.74C80.1 18.74 81.14 18.72 81.92 18.4C82.68 18.08 82.9 17.48 82.9 16.46V12.4H80.54ZM94.1 4.98V6.68H101.88V4.98H94.1ZM98 3.02C99.82 4.76 103.14 6.64 105.78 7.62C106.14 6.96 106.7 6.12 107.22 5.58C104.26 4.76 101.22 3.14 99.04 1.08H96.74C95.16 2.84 92 4.86 88.84 5.92C89.3 6.42 89.86 7.32 90.12 7.86C93.2 6.66 96.28 4.74 98 3.02ZM94.16 9.14H101.74V10.26H94.16V9.14ZM92.02 7.52V11.86H104V7.52H92.02ZM88.82 17.18V19.26H107.14V17.18H88.82ZM90.96 12.78V18.24H93.2V14.64H94.88V18.24H97.08V14.64H98.78V18.24H100.98V14.64H102.72V18.24H105.08V12.78H90.96Z" fill="#171614"/>
</svg>
