<svg width="154" height="24" viewBox="0 0 154 24" fill="none" xmlns="http://www.w3.org/2000/svg">
<path d="M2.376 6.888V23.136H4.992V6.888H2.376ZM7.44 14.28V21.888H10.008V14.28H7.44ZM8.592 14.28V15.888H14.016V19.464H8.592V21.048H16.536V14.28H8.592ZM3.768 6.888V8.568H8.784V11.712H3.768V13.368H11.376V6.888H3.768ZM3.792 9.36V10.896H9.528V9.36H3.792ZM8.592 16.872V18.432H15.168V16.872H8.592ZM14.376 9.36V10.896H20.256V9.36H14.376ZM19.92 6.888H12.792V13.368H19.92V11.712H15.384V8.568H19.92V6.888ZM19.272 6.888V20.232C19.272 20.568 19.152 20.664 18.792 20.688C18.432 20.688 17.208 20.712 16.128 20.64C16.464 21.336 16.824 22.416 16.92 23.136C18.696 23.16 19.968 23.112 20.832 22.704C21.696 22.296 21.96 21.6 21.96 20.256V6.888H19.272ZM4.08 2.328V4.488H11.64V2.328H4.08ZM13.728 2.328V4.488H22.944V2.328H13.728ZM4.176 0.431999C3.432 2.232 2.088 4.056 0.624 5.232C1.272 5.592 2.424 6.336 2.976 6.792C4.392 5.448 5.928 3.288 6.864 1.152L4.176 0.431999ZM13.992 0.431999C13.272 2.256 11.88 4.056 10.32 5.208C11.016 5.496 12.24 6.144 12.84 6.552C14.28 5.28 15.84 3.216 16.728 1.104L13.992 0.431999ZM4.968 4.128C5.496 4.944 6.072 6.048 6.288 6.744L8.784 6.048C8.52 5.328 7.896 4.272 7.344 3.504L4.968 4.128ZM15.72 4.128C16.392 4.944 17.112 6.072 17.424 6.792L19.992 6.072C19.632 5.328 18.84 4.224 18.168 3.456L15.72 4.128ZM37.832 11.496C39.056 13.224 40.328 15.552 40.76 17.04L43.28 15.744C42.752 14.208 41.384 11.976 40.136 10.32L37.832 11.496ZM38.624 4.704V7.416H47.24V4.704H38.624ZM46.016 4.704V5.28C45.728 15.048 45.392 19.104 44.6 19.92C44.336 20.256 44.048 20.328 43.568 20.328C42.944 20.328 41.552 20.328 40.04 20.208C40.568 21.024 40.952 22.272 41 23.088C42.416 23.16 43.88 23.16 44.768 23.04C45.776 22.872 46.424 22.608 47.096 21.696C48.104 20.424 48.416 16.608 48.776 6.024C48.8 5.664 48.8 4.704 48.8 4.704H46.016ZM38.768 0.599999C37.976 3.744 36.512 6.888 34.688 8.784C35.408 9.192 36.68 10.056 37.256 10.536C39.08 8.352 40.736 4.824 41.744 1.248L38.768 0.599999ZM30.32 0.647999C29.768 2.328 28.736 4.632 27.872 6.072L29.816 6.864C30.752 5.544 31.88 3.408 32.864 1.536L30.32 0.647999ZM33.2 3.48C31.928 6.048 29.744 9.576 27.896 11.736L29.648 12.624C31.496 10.584 33.848 7.248 35.624 4.488L33.2 3.48ZM26.624 6.336C27.848 7.488 29.312 9.144 29.912 10.296L31.376 8.04C30.752 6.984 29.264 5.448 27.968 4.344L26.624 6.336ZM32.6 9.264C33.512 10.92 34.4 13.104 34.688 14.472L36.872 13.464C36.56 12.072 35.6 9.984 34.64 8.376L32.6 9.264ZM26.6 11.208L26.84 13.704C29.216 13.56 32.336 13.344 35.36 13.104V10.824C32.144 10.992 28.832 11.136 26.6 11.208ZM33.032 15.288C33.608 16.752 34.232 18.696 34.448 19.944L36.704 19.128C36.416 17.904 35.768 16.032 35.144 14.592L33.032 15.288ZM27.632 14.736C27.44 16.776 27.056 18.912 26.36 20.328C26.96 20.568 28.04 21.072 28.544 21.384C29.24 19.848 29.768 17.448 30.008 15.144L27.632 14.736ZM30.416 12.48V23.184H32.984V12.48H30.416ZM52.48 12.912L53.2 15.672C55.48 15.072 58.384 14.28 61.12 13.512L60.784 10.92C57.784 11.664 54.616 12.456 52.48 12.912ZM52.84 5.16V7.824H60.832V5.16H52.84ZM55.744 0.623999V20.136C55.744 20.472 55.624 20.592 55.288 20.592C54.976 20.592 53.992 20.592 53.056 20.568C53.416 21.288 53.776 22.44 53.848 23.16C55.528 23.16 56.68 23.088 57.472 22.656C58.264 22.224 58.528 21.504 58.528 20.16V0.623999H55.744ZM61.384 6V23.112H64.12V8.736H71.896V22.968H74.776V6H61.384ZM63.112 12.192V14.88H72.688V12.192H63.112ZM63.184 18.624V21.384H72.784V18.624H63.184ZM66.592 0.671999V20.304H69.304V0.671999H66.592ZM86.856 11.088C85.896 12.792 84.288 14.424 82.704 15.528C83.16 16.008 83.88 17.088 84.144 17.568C85.944 16.2 87.864 13.992 89.04 11.832L86.856 11.088ZM86.328 7.368C85.608 8.496 84.192 9.864 82.872 10.704C83.352 11.088 84.072 11.832 84.456 12.288C85.92 11.28 87.528 9.672 88.608 8.136L86.328 7.368ZM80.904 1.608V8.712C80.904 12.528 80.736 17.976 78.552 21.672C79.248 21.936 80.472 22.608 81 23.064C83.304 19.104 83.664 12.864 83.664 8.712V1.608H80.904ZM82.896 1.608V3.816H96.864V5.088H82.896V7.296H99.672V1.608H82.896ZM88.68 10.8V13.08H100.752V10.8H88.68ZM91.08 19.896V22.176H100.776V19.896H91.08ZM89.736 7.872V23.16H92.136V7.872H89.736ZM93.432 7.704V18.12H99.336V7.848L97.056 7.824V15.744H95.64V7.704H93.432ZM85.128 13.992V23.088H87.504V12.648L86.688 12.432L85.128 13.992ZM115.136 2.424V20.712H117.872V3.288L115.136 2.424ZM113.408 20.28L114.416 23.016C116.552 22.44 119.216 21.72 121.688 21L121.328 18.504C118.448 19.176 115.424 19.872 113.408 20.28ZM124.424 0.599999C122.36 1.56 118.928 2.448 115.832 3C116.192 3.6 116.576 4.632 116.72 5.28C120.008 4.752 123.848 3.936 126.68 2.808L124.424 0.599999ZM116.672 9.528V12.264H127.328V9.528H116.672ZM120.512 3.528C120.68 12.96 120.944 21.264 123.752 22.68C125.48 23.856 127.28 22.896 127.712 18.696C127.112 18.312 126.128 17.52 125.624 16.968C125.552 18.96 125.36 20.256 125.072 20.112C123.632 19.536 123.224 11.688 123.272 3.528H120.512ZM108.416 12.408V23.136H110.96V12.408H108.416ZM108.344 0.599999C107.792 2.28 106.76 4.608 105.872 6.048L107.84 6.912C108.752 5.544 109.904 3.432 110.888 1.56L108.344 0.599999ZM111.248 3.504C109.976 6.12 107.744 9.624 105.92 11.808L107.6 12.768C109.472 10.704 111.824 7.344 113.6 4.632L111.248 3.504ZM104.624 6.336C105.848 7.464 107.312 9.12 107.888 10.248L109.352 7.992C108.728 6.936 107.216 5.424 105.968 4.344L104.624 6.336ZM110.744 9.216C111.704 10.848 112.64 13.008 112.928 14.376L115.112 13.368C114.776 11.976 113.768 9.912 112.76 8.328L110.744 9.216ZM104.552 11.184L104.936 13.728C107.336 13.464 110.432 13.152 113.408 12.816L113.36 10.56C110.12 10.8 106.784 11.064 104.552 11.184ZM111.104 15.312C111.656 16.68 112.232 18.456 112.448 19.608L114.704 18.792C114.464 17.664 113.84 15.936 113.264 14.592L111.104 15.312ZM105.656 14.688C105.464 16.728 105.08 18.888 104.408 20.304C105.008 20.52 106.088 21.024 106.592 21.336C107.264 19.8 107.792 17.4 108.032 15.12L105.656 14.688ZM137.32 5.376V7.416H146.656V5.376H137.32ZM142 3.024C144.184 5.112 148.168 7.368 151.336 8.544C151.768 7.752 152.44 6.744 153.064 6.096C149.512 5.112 145.864 3.168 143.248 0.696H140.488C138.592 2.808 134.8 5.232 131.008 6.504C131.56 7.104 132.232 8.184 132.544 8.832C136.24 7.392 139.936 5.088 142 3.024ZM137.392 10.368H146.488V11.712H137.392V10.368ZM134.824 8.424V13.632H149.2V8.424H134.824ZM130.984 20.016V22.512H152.968V20.016H130.984ZM133.552 14.736V21.288H136.24V16.968H138.256V21.288H140.896V16.968H142.936V21.288H145.576V16.968H147.664V21.288H150.496V14.736H133.552Z" fill="#171614"/>
</svg>
