<svg width="153" height="24" viewBox="0 0 153 24" fill="none" xmlns="http://www.w3.org/2000/svg">
<path d="M10.616 16.608V18.936H22.28V16.608H10.616ZM10.712 2.712V5.04H22.208V2.712H10.712ZM15.056 0.599999V3.984H17.816V0.599999H15.056ZM14.456 7.992H18.44V9.312H14.456V7.992ZM11.96 6V11.304H21.056V6H11.96ZM11.504 12.192V14.376H19.616V12.192H11.504ZM15.056 15.24V20.496C15.056 20.76 14.96 20.832 14.648 20.832C14.336 20.856 13.208 20.856 12.248 20.808C12.584 21.48 12.896 22.464 12.992 23.16C14.624 23.16 15.776 23.136 16.64 22.8C17.528 22.44 17.744 21.792 17.744 20.592V15.24H15.056ZM18.536 12.192V12.624C17.912 13.512 16.592 14.76 15.392 15.504C15.728 15.816 16.376 16.464 16.64 16.872C18.392 16.008 20.12 14.616 21.344 13.32L19.76 12.048L19.208 12.192H18.536ZM0.344 6.384V23.136H2.504V8.76H8.024V22.8H10.304V6.384H0.344ZM1.328 15.672V17.832H9.2V15.672H1.328ZM1.328 19.32V21.528H9.2V19.32H1.328ZM0.104 1.632V4.032H10.4V1.632H0.104ZM2.936 2.328V8.16H4.808V2.328H2.936ZM5.72 2.328V8.16H7.616V2.328H5.72ZM3.44 8.136V10.44C3.44 11.496 3.32 12.744 2.36 13.776C2.648 13.944 3.224 14.424 3.464 14.712C4.592 13.536 4.832 11.808 4.832 10.464V8.136H3.44ZM5.696 8.136V11.808C5.696 13.248 6.008 13.608 7.112 13.608C7.304 13.608 7.736 13.608 7.928 13.608C8.696 13.608 9.152 13.32 9.32 12.6C8.888 12.504 8.312 12.312 8.048 12.048C8 12.12 7.952 12.12 7.712 12.12C7.616 12.12 7.376 12.12 7.304 12.12C7.112 12.12 7.088 12.096 7.088 11.784V8.136H5.696ZM26.296 2.064V4.416H47.752V2.064H26.296ZM31.336 6.48V8.904H47.968V6.48H31.336ZM27.808 10.416V12.696H31V10.416H27.808ZM25.72 14.136V16.464H30.88V14.136H25.72ZM34.168 18.792V20.592H40.408V18.792H34.168ZM31.576 0.623999V5.64H34.432V0.623999H31.576ZM39.496 0.623999V5.712H42.352V0.623999H39.496ZM36.568 10.872V13.584H38.464V10.872H36.568ZM26.704 6.744V13.176H28.792V6.744H26.704ZM36.568 16.752V19.464H38.464V16.752H36.568ZM34.432 12.768V14.448H38.32V15.864H34.432V17.544H40.288V12.768H34.432ZM33.256 9.816V21.936H35.248V11.616H40.216V9.816H33.256ZM30.064 6.48V13.68C30.064 16.32 29.968 19.704 28.72 22.056C29.32 22.272 30.4 22.848 30.856 23.232C32.224 20.664 32.44 16.68 32.44 13.704V6.48H30.064ZM40.288 5.088C40.576 16.032 42.28 23.184 45.64 23.184C47.416 23.184 48.184 22.512 48.496 18.888C47.896 18.672 47.128 18.144 46.624 17.64C46.504 19.944 46.264 20.664 45.856 20.688C44.608 20.688 42.832 15.144 42.856 5.088H40.288ZM43.792 5.472C44.536 6 45.376 6.768 45.76 7.32L47.536 5.976C47.128 5.424 46.216 4.704 45.472 4.224L43.792 5.472ZM44.68 9.768C43.72 14.952 41.608 19.08 38.032 21.504C38.632 21.888 39.688 22.776 40.12 23.232C43.696 20.448 46.024 15.96 47.224 10.2L44.68 9.768ZM26.872 15.024V16.992C26.872 18.36 26.704 20.568 25.504 22.032C25.96 22.272 26.752 22.824 27.136 23.16C28.648 21.456 28.888 18.72 28.888 17.064V15.024H26.872ZM56.952 0.527999C55.92 3.648 54.048 6.72 51.888 8.592C52.584 9 53.808 9.96 54.36 10.464C56.496 8.304 58.608 4.848 59.88 1.272L56.952 0.527999ZM57.456 3.264L56.064 6.048H72.72V3.264H57.456ZM55.752 8.928V16.656H58.656V11.616H72.168V8.928H55.752ZM51.96 15.24V18.024H74.04V15.24H51.96ZM62.808 4.704V23.16H65.784V4.704H62.808ZM78.056 10.176V12.6H99.92V10.176H78.056ZM78.392 17.856V20.328H99.656V17.856H78.392ZM79.904 6.408V8.784H98.24V6.408H79.904ZM79.64 14.112V16.464H98.528V14.112H79.64ZM87.464 7.344V23.16H90.32V7.344H87.464ZM82.328 7.632V15.24H84.992V7.632H82.328ZM92.96 7.632V15.24H95.624V7.632H92.96ZM83.336 0.623999V5.88H86.168V0.623999H83.336ZM91.664 0.623999V5.88H94.496V0.623999H91.664ZM78.32 1.968V4.512H99.68V1.968H78.32ZM115.12 18.288C115.576 19.128 116.008 20.328 116.104 21.096L118.432 20.4C118.288 19.656 117.856 18.528 117.328 17.712L115.12 18.288ZM121.456 17.64C121.216 18.456 120.76 19.632 120.376 20.424L122.512 21.048C122.896 20.352 123.424 19.368 123.952 18.312L121.456 17.64ZM116.416 14.976H122.392V16.2H116.416V14.976ZM114.04 13.296V17.88H124.864V13.296H114.04ZM115.576 6.672H123.136V7.752H115.576V6.672ZM115.576 3.936H123.136V5.016H115.576V3.936ZM113.272 2.16V9.528H125.56V2.16H113.272ZM112.936 10.32V12.48H125.944V10.32H112.936ZM112.456 20.592V22.704H126.28V20.592H112.456ZM116.488 0.623999V3.48H118.624V0.623999H116.488ZM120.04 0.623999V3.48H122.176V0.623999H120.04ZM116.92 2.976V9.168H118.6V2.976H116.92ZM120.04 2.976V9.168H121.72V2.976H120.04ZM103.984 6.912V9.408H112.408V6.912H103.984ZM104.56 2.136V4.608H111.928V2.136H104.56ZM110.488 10.608V19.56H112.312V10.608H110.488ZM107.128 8.16V23.16H109.504V8.16H107.128ZM104.32 10.656V13.464C104.32 15.552 104.2 18 103.552 19.944C104.056 20.208 104.8 20.784 105.16 21.168C106.024 18.864 106.144 16.008 106.144 13.536V10.656H104.32ZM136.32 5.376V7.416H145.656V5.376H136.32ZM141 3.024C143.184 5.112 147.168 7.368 150.336 8.544C150.768 7.752 151.44 6.744 152.064 6.096C148.512 5.112 144.864 3.168 142.248 0.696H139.488C137.592 2.808 133.8 5.232 130.008 6.504C130.56 7.104 131.232 8.184 131.544 8.832C135.24 7.392 138.936 5.088 141 3.024ZM136.392 10.368H145.488V11.712H136.392V10.368ZM133.824 8.424V13.632H148.2V8.424H133.824ZM129.984 20.016V22.512H151.968V20.016H129.984ZM132.552 14.736V21.288H135.24V16.968H137.256V21.288H139.896V16.968H141.936V21.288H144.576V16.968H146.664V21.288H149.496V14.736H132.552Z" fill="#171614"/>
</svg>
