<svg width="890" height="589" viewBox="0 0 890 589" fill="none" xmlns="http://www.w3.org/2000/svg">
<rect width="280" height="265" rx="12" fill="#EAE6E5"/>
<rect x="305" width="280" height="265" rx="12" fill="#EAE6E5"/>
<rect x="610" width="280" height="265" rx="12" fill="#EAE6E5"/>
<rect y="290" width="435" height="299" rx="12" fill="#EAE6E5"/>
<rect x="455" y="290" width="435" height="299" rx="12" fill="#EAE6E5"/>
<path d="M430.52 21V23.88H432.92V21H430.52ZM428.14 26.22C427.7 26.92 426.9 27.62 426.08 28.12C426.52 28.38 427.32 28.9 427.68 29.22C428.5 28.62 429.44 27.66 430.02 26.76L428.14 26.22ZM434.94 26.24C433.04 27.8 429.4 28.96 426.08 29.56C426.52 29.94 427.2 30.76 427.52 31.2C430.76 30.38 434.56 29.02 436.82 27.1L434.94 26.24ZM426.1 22.46V26.02H428.18V24.12H435.46V26.02H437.64V22.46H426.1ZM428.76 24.74V26.22H434.82V24.74H428.76ZM430.6 25.34V29.06L432.72 28.62V25.34H430.6ZM429.72 32.72H434.72V33.42H429.72V32.72ZM429.72 34.7H434.72V35.4H429.72V34.7ZM429.72 30.76H434.72V31.44H429.72V30.76ZM427.64 29.4V36.76H436.9V29.4H427.64ZM432.78 37.66C434.02 38.3 435.42 39.18 436.2 39.8L438.14 38.58C437.22 37.96 435.62 37.08 434.26 36.46L432.78 37.66ZM429.72 36.38C428.82 37.08 427.02 37.94 425.5 38.36C425.96 38.76 426.6 39.42 426.96 39.84C428.48 39.38 430.38 38.48 431.54 37.6L429.72 36.38ZM422 21.04C421.56 22.42 420.68 24.36 419.98 25.56L421.56 26.18C422.32 25.04 423.26 23.26 424.06 21.7L422 21.04ZM424.08 23.4C423.12 25.54 421.46 28.46 420.06 30.26L421.44 30.98C422.88 29.28 424.66 26.48 426.04 24.22L424.08 23.4ZM419 25.72C420 26.72 421.16 28.14 421.6 29.1L422.88 27.26C422.42 26.34 421.2 25.04 420.18 24.1L419 25.72ZM423.5 28.02C424.16 29.44 424.74 31.26 424.88 32.42L426.58 31.76C426.42 30.62 425.78 28.84 425.08 27.46L423.5 28.02ZM419.02 29.92L419.26 31.92C421.02 31.8 423.26 31.64 425.44 31.46V29.6C423.06 29.72 420.68 29.86 419.02 29.92ZM423.92 33.14C424.28 34.18 424.64 35.54 424.78 36.44L426.42 35.88C426.26 35.02 425.88 33.7 425.5 32.68L423.92 33.14ZM419.76 32.78C419.62 34.46 419.32 36.26 418.76 37.44C419.22 37.62 420.08 38 420.46 38.26C421.02 36.98 421.42 35 421.64 33.1L419.76 32.78ZM421.86 30.86V39.8H423.86V30.86H421.86ZM451 21.18C450.56 23.98 449.58 26.56 447.96 28.08C448.52 28.44 449.52 29.22 449.92 29.66C451.64 27.8 452.84 24.84 453.44 21.56L451 21.18ZM456.86 21.04L454.66 21.64C455.46 24.78 456.76 28 458.32 30.02C458.74 29.38 459.6 28.5 460.18 28.06C458.78 26.42 457.5 23.62 456.86 21.04ZM444.1 21.04C443.64 22.44 442.78 24.36 442.06 25.56L443.68 26.22C444.46 25.12 445.4 23.34 446.22 21.78L444.1 21.04ZM446.5 23.4C445.44 25.54 443.62 28.48 442.08 30.28L443.54 31.02C445.08 29.32 447.04 26.54 448.52 24.24L446.5 23.4ZM441.02 25.78C442.04 26.74 443.26 28.12 443.76 29.08L444.98 27.2C444.46 26.32 443.22 25.04 442.14 24.12L441.02 25.78ZM446 28.22C446.76 29.6 447.5 31.42 447.74 32.56L449.56 31.72C449.3 30.56 448.5 28.82 447.7 27.48L446 28.22ZM441 29.84L441.2 31.92C443.18 31.8 445.78 31.62 448.3 31.42V29.52C445.62 29.66 442.86 29.78 441 29.84ZM446.36 33.24C446.84 34.46 447.36 36.08 447.54 37.12L449.42 36.44C449.18 35.42 448.64 33.86 448.12 32.66L446.36 33.24ZM441.86 32.78C441.7 34.48 441.38 36.26 440.8 37.44C441.3 37.64 442.2 38.06 442.62 38.32C443.2 37.04 443.64 35.04 443.84 33.12L441.86 32.78ZM444.18 30.9V39.82H446.32V30.9H444.18ZM449.84 28.86V31.02H457.16V28.86H449.84ZM456.46 28.86V29.28C456.28 34.82 456.06 36.88 455.66 37.36C455.48 37.6 455.3 37.64 455 37.64C454.64 37.64 453.94 37.62 453.16 37.56C453.52 38.16 453.78 39.1 453.82 39.74C454.72 39.78 455.6 39.76 456.14 39.68C456.76 39.58 457.2 39.4 457.64 38.82C458.24 38.06 458.48 35.78 458.7 29.82C458.72 29.52 458.74 28.86 458.74 28.86H456.46ZM451.82 30C451.66 33.8 451.34 36.54 447.9 38.08C448.38 38.48 448.98 39.28 449.24 39.82C453.26 37.94 453.84 34.56 454.06 30H451.82ZM472.52 28.94H479.26V31.12H472.52V28.94ZM470.72 27.48V32.6H481.18V27.48H470.72ZM474.96 27.98V31.84H476.66V27.98H474.96ZM477.68 28.92C477.52 29.42 477.16 30.22 476.9 30.74L477.92 31.08C478.22 30.62 478.6 29.96 479 29.3L477.68 28.92ZM472.8 29.38C473.08 29.92 473.34 30.64 473.42 31.12L474.6 30.7C474.5 30.24 474.22 29.54 473.92 29.02L472.8 29.38ZM475.84 23.12C477.02 24.64 479.1 26.54 480.9 27.62C481.26 26.94 481.8 26.08 482.26 25.54C480.3 24.6 478.26 22.78 476.86 21H474.68C473.66 22.66 471.54 24.92 469.38 26.12C469.8 26.62 470.32 27.5 470.58 28.08C472.74 26.78 474.74 24.7 475.84 23.12ZM473.26 25.02V26.64H478.62V25.02H473.26ZM472.5 37.82V39.32H479.08V37.82H472.5ZM472.56 35.58V37H479.14V35.58H472.56ZM471.42 33.26V39.92H473.52V34.78H478.22V39.86H480.4V33.26H471.42ZM466.08 21.04C465.64 22.42 464.78 24.36 464.08 25.56L465.64 26.2C466.38 25.08 467.3 23.3 468.1 21.74L466.08 21.04ZM468.22 23.4C467.24 25.54 465.52 28.46 464.1 30.26L465.44 31C466.9 29.3 468.72 26.52 470.12 24.26L468.22 23.4ZM462.98 25.64C463.98 26.64 465.16 28.06 465.6 29.04L466.86 27.24C466.38 26.34 465.18 25.02 464.16 24.06L462.98 25.64ZM467.62 28.1C468.32 29.52 468.96 31.4 469.12 32.56L470.8 31.84C470.62 30.66 469.92 28.84 469.2 27.46L467.62 28.1ZM462.92 29.8L463.18 31.86C464.96 31.72 467.28 31.56 469.5 31.38L469.48 29.4C467.08 29.56 464.64 29.72 462.92 29.8ZM467.94 33.18C468.4 34.34 468.78 35.86 468.86 36.86L470.54 36.32C470.42 35.34 470.02 33.84 469.54 32.7L467.94 33.18ZM463.78 32.78C463.62 34.46 463.32 36.26 462.76 37.44C463.22 37.62 464.06 38 464.44 38.26C465 36.98 465.44 35 465.64 33.1L463.78 32.78ZM465.84 30.86V39.8H467.86V30.86H465.84ZM485.54 30.2V32.36H495.74V30.2H485.54ZM489.7 28.42V39.74H492.04V28.42H489.7ZM489.72 31.06C488.72 33.08 486.68 35.36 484.82 36.5C485.32 37.04 485.94 38 486.26 38.64C488.22 37.12 490.38 34.48 491.56 32.18L489.72 31.06ZM494.72 21.2C492.26 21.86 488.46 22.38 485.1 22.68C485.36 23.2 485.66 24.08 485.72 24.64C489.14 24.42 493.16 23.96 496.14 23.22L494.72 21.2ZM485.5 25.88C486.24 26.82 486.94 28.14 487.2 29.02L489.06 28.12C488.76 27.24 488.04 26 487.28 25.08L485.5 25.88ZM489.1 25.14C489.66 26.08 490.18 27.34 490.36 28.2L492.32 27.5C492.1 26.68 491.54 25.46 490.96 24.56L489.1 25.14ZM493.86 24.58C493.52 25.74 492.88 27.34 492.32 28.4L494.16 28.94C494.76 28 495.54 26.52 496.2 25.16L493.86 24.58ZM500.86 21.34C499.82 22.88 497.74 24.44 496 25.34C496.64 25.82 497.36 26.58 497.78 27.14C499.76 25.96 501.84 24.24 503.28 22.3L500.86 21.34ZM501.28 26.84C500.14 28.42 497.94 30 496.14 30.92C496.78 31.38 497.52 32.16 497.92 32.7C499.94 31.52 502.12 29.76 503.62 27.82L501.28 26.84ZM501.72 32.38C500.36 34.74 497.7 36.64 495.02 37.72C495.66 38.28 496.36 39.14 496.74 39.8C499.72 38.34 502.4 36.18 504.14 33.32L501.72 32.38ZM490.96 33.26C492.28 34.32 493.68 35.9 494.32 36.96L495.9 35.38C495.24 34.34 493.82 32.9 492.44 31.88L490.96 33.26ZM511.78 20.92C510.74 23.62 508.92 26.28 506.88 27.88C507.5 28.26 508.54 29.14 509 29.62C511.04 27.72 513.06 24.72 514.32 21.64L511.78 20.92ZM512.18 23.24L511.04 25.5H522.82V23.24H512.18ZM522.1 23.24V23.7C521.96 29.7 521.78 31.84 521.4 32.34C521.24 32.56 521.04 32.64 520.74 32.64C520.38 32.64 519.7 32.64 518.94 32.54C519.3 33.18 519.56 34.14 519.58 34.84C520.58 34.84 521.48 34.86 522.04 34.74C522.68 34.64 523.14 34.44 523.56 33.84C524.14 33.06 524.32 30.64 524.5 24.26C524.52 23.94 524.52 23.24 524.52 23.24H522.1ZM511.08 31.54V33.66H518.92V27.02H510.7V29.12H516.56V31.54H511.08ZM510 31.54V36.46C510 38.98 511.08 39.64 514.82 39.64C515.66 39.64 520.38 39.64 521.24 39.64C524.44 39.64 525.24 38.9 525.64 35.84C524.96 35.72 523.92 35.34 523.34 35C523.14 37.06 522.86 37.4 521.16 37.4C519.94 37.4 515.8 37.4 514.86 37.4C512.74 37.4 512.38 37.26 512.38 36.42V31.54H510ZM537.36 30.36V32.92H539.8V30.36H537.36ZM536.98 32.22C535.38 33.64 532.16 34.7 529.02 35.18C529.44 35.6 530.02 36.38 530.3 36.88C533.6 36.28 536.9 34.9 538.84 33.02L536.98 32.22ZM540.06 32.26L538.04 32.68C539.54 36.56 542.12 38.88 546.64 39.86C546.9 39.26 547.5 38.38 547.98 37.92C543.84 37.22 541.24 35.3 540.06 32.26ZM545.1 33.26C544.16 34.02 542.56 35 541.38 35.58L542.82 36.74C544.02 36.22 545.58 35.38 546.82 34.52L545.1 33.26ZM531.2 37.58L531.5 39.56C533.8 39.26 536.98 38.84 539.96 38.42L539.88 36.54C536.74 36.94 533.4 37.36 531.2 37.58ZM529.38 31.66V33.46H547.62V31.66H529.38ZM537.24 23.5V25.5H547.48V23.5H537.24ZM537.74 27.96V29.96H547.04V27.96H537.74ZM534.38 21.02V30.98H536.64V21.02H534.38ZM541.14 21.02V29.18H543.52V21.02H541.14ZM530.28 21.26V25.38H532.3V21.26H530.28ZM531.3 23.24V25.06H535.52V23.24H531.3ZM529.36 26.16V27.98H535.5V26.16H529.36ZM530.84 26.82C530.76 28.3 530.5 29.34 529 29.98C529.44 30.32 530 31.06 530.22 31.54C532.4 30.6 532.88 29 533.02 26.82H530.84ZM533.68 34.98V38.32H535.96V34.44L534.58 34.08L533.68 34.98ZM556.6 24.98V26.68H564.38V24.98H556.6ZM560.5 23.02C562.32 24.76 565.64 26.64 568.28 27.62C568.64 26.96 569.2 26.12 569.72 25.58C566.76 24.76 563.72 23.14 561.54 21.08H559.24C557.66 22.84 554.5 24.86 551.34 25.92C551.8 26.42 552.36 27.32 552.62 27.86C555.7 26.66 558.78 24.74 560.5 23.02ZM556.66 29.14H564.24V30.26H556.66V29.14ZM554.52 27.52V31.86H566.5V27.52H554.52ZM551.32 37.18V39.26H569.64V37.18H551.32ZM553.46 32.78V38.24H555.7V34.64H557.38V38.24H559.58V34.64H561.28V38.24H563.48V34.64H565.22V38.24H567.58V32.78H553.46Z" fill="#171614"/>
<path d="M765.98 26.24V39.78H768.16V26.24H765.98ZM770.2 32.4V38.74H772.34V32.4H770.2ZM771.16 32.4V33.74H775.68V36.72H771.16V38.04H777.78V32.4H771.16ZM767.14 26.24V27.64H771.32V30.26H767.14V31.64H773.48V26.24H767.14ZM767.16 28.3V29.58H771.94V28.3H767.16ZM771.16 34.56V35.86H776.64V34.56H771.16ZM775.98 28.3V29.58H780.88V28.3H775.98ZM780.6 26.24H774.66V31.64H780.6V30.26H776.82V27.64H780.6V26.24ZM780.06 26.24V37.36C780.06 37.64 779.96 37.72 779.66 37.74C779.36 37.74 778.34 37.76 777.44 37.7C777.72 38.28 778.02 39.18 778.1 39.78C779.58 39.8 780.64 39.76 781.36 39.42C782.08 39.08 782.3 38.5 782.3 37.38V26.24H780.06ZM767.4 22.44V24.24H773.7V22.44H767.4ZM775.44 22.44V24.24H783.12V22.44H775.44ZM767.48 20.86C766.86 22.36 765.74 23.88 764.52 24.86C765.06 25.16 766.02 25.78 766.48 26.16C767.66 25.04 768.94 23.24 769.72 21.46L767.48 20.86ZM775.66 20.86C775.06 22.38 773.9 23.88 772.6 24.84C773.18 25.08 774.2 25.62 774.7 25.96C775.9 24.9 777.2 23.18 777.94 21.42L775.66 20.86ZM768.14 23.94C768.58 24.62 769.06 25.54 769.24 26.12L771.32 25.54C771.1 24.94 770.58 24.06 770.12 23.42L768.14 23.94ZM777.1 23.94C777.66 24.62 778.26 25.56 778.52 26.16L780.66 25.56C780.36 24.94 779.7 24.02 779.14 23.38L777.1 23.94ZM795.86 30.08C796.88 31.52 797.94 33.46 798.3 34.7L800.4 33.62C799.96 32.34 798.82 30.48 797.78 29.1L795.86 30.08ZM796.52 24.42V26.68H803.7V24.42H796.52ZM802.68 24.42V24.9C802.44 33.04 802.16 36.42 801.5 37.1C801.28 37.38 801.04 37.44 800.64 37.44C800.12 37.44 798.96 37.44 797.7 37.34C798.14 38.02 798.46 39.06 798.5 39.74C799.68 39.8 800.9 39.8 801.64 39.7C802.48 39.56 803.02 39.34 803.58 38.58C804.42 37.52 804.68 34.34 804.98 25.52C805 25.22 805 24.42 805 24.42H802.68ZM796.64 21C795.98 23.62 794.76 26.24 793.24 27.82C793.84 28.16 794.9 28.88 795.38 29.28C796.9 27.46 798.28 24.52 799.12 21.54L796.64 21ZM789.6 21.04C789.14 22.44 788.28 24.36 787.56 25.56L789.18 26.22C789.96 25.12 790.9 23.34 791.72 21.78L789.6 21.04ZM792 23.4C790.94 25.54 789.12 28.48 787.58 30.28L789.04 31.02C790.58 29.32 792.54 26.54 794.02 24.24L792 23.4ZM786.52 25.78C787.54 26.74 788.76 28.12 789.26 29.08L790.48 27.2C789.96 26.32 788.72 25.04 787.64 24.12L786.52 25.78ZM791.5 28.22C792.26 29.6 793 31.42 793.24 32.56L795.06 31.72C794.8 30.56 794 28.82 793.2 27.48L791.5 28.22ZM786.5 29.84L786.7 31.92C788.68 31.8 791.28 31.62 793.8 31.42V29.52C791.12 29.66 788.36 29.78 786.5 29.84ZM791.86 33.24C792.34 34.46 792.86 36.08 793.04 37.12L794.92 36.44C794.68 35.42 794.14 33.86 793.62 32.66L791.86 33.24ZM787.36 32.78C787.2 34.48 786.88 36.26 786.3 37.44C786.8 37.64 787.7 38.06 788.12 38.32C788.7 37.04 789.14 35.04 789.34 33.12L787.36 32.78ZM789.68 30.9V39.82H791.82V30.9H789.68ZM812.76 23.94V26.2H817.66V23.94H812.76ZM821.14 21.06V39.76H823.64V21.06H821.14ZM810.56 29.86C812.06 30.76 813.96 32.16 814.82 33.16L816.1 31.12C815.2 30.18 813.26 28.88 811.76 28.06L810.56 29.86ZM813.02 21C812.14 24.62 810.5 27.98 808.3 29.98C808.86 30.34 809.88 31.12 810.3 31.54C812.54 29.22 814.34 25.52 815.4 21.5L813.02 21ZM819.9 25.88L817.86 26.62C819.72 30.2 822.72 33.46 826.08 35.24C826.48 34.6 827.24 33.64 827.82 33.14C824.56 31.7 821.46 28.82 819.9 25.88ZM817 23.94V24.48C816.06 31.24 813.14 35.6 808.88 37.84C809.46 38.2 810.38 39.1 810.78 39.64C815.1 37.18 818.26 32.12 819.44 24.38L817.86 23.86L817.44 23.94H817ZM831.32 28.96V33.32H833.54V30.9H846.48V33.32H848.82V28.96H831.32ZM837.08 21.28V28.2H843.02V21.28H840.84V26.44H839.16V21.28H837.08ZM831.08 23.2V25.06H848.98V23.2H831.08ZM844.14 21.24V26.06C844.14 27.84 844.5 28.4 846.14 28.4C846.46 28.4 847.04 28.4 847.36 28.4C848.56 28.4 849.08 27.84 849.28 25.96C848.7 25.84 847.88 25.52 847.46 25.22C847.42 26.4 847.36 26.62 847.1 26.62C847 26.62 846.66 26.62 846.56 26.62C846.32 26.62 846.28 26.56 846.28 26.06V21.24H844.14ZM833.8 21.24V23.94C833.8 25.08 833.48 26.54 831.22 27.32C831.68 27.68 832.28 28.38 832.56 28.84C835.28 27.68 835.96 25.72 835.96 23.94V21.24H833.8ZM838.72 30.58V39.8H841.08V30.58H838.72ZM833.28 32.4V38.62H835.6V34.3H845.46V32.4H833.28ZM844.54 32.4V36.42C844.54 36.64 844.46 36.7 844.16 36.7C843.9 36.7 842.82 36.7 841.94 36.66C842.24 37.24 842.58 38.12 842.68 38.74C844.1 38.74 845.14 38.72 845.92 38.4C846.68 38.08 846.9 37.48 846.9 36.46V32.4H844.54ZM858.1 24.98V26.68H865.88V24.98H858.1ZM862 23.02C863.82 24.76 867.14 26.64 869.78 27.62C870.14 26.96 870.7 26.12 871.22 25.58C868.26 24.76 865.22 23.14 863.04 21.08H860.74C859.16 22.84 856 24.86 852.84 25.92C853.3 26.42 853.86 27.32 854.12 27.86C857.2 26.66 860.28 24.74 862 23.02ZM858.16 29.14H865.74V30.26H858.16V29.14ZM856.02 27.52V31.86H868V27.52H856.02ZM852.82 37.18V39.26H871.14V37.18H852.82ZM854.96 32.78V38.24H857.2V34.64H858.88V38.24H861.08V34.64H862.78V38.24H864.98V34.64H866.72V38.24H869.08V32.78H854.96Z" fill="#171614"/>
<path d="M243.376 326.888V343.136H245.992V326.888H243.376ZM248.44 334.28V341.888H251.008V334.28H248.44ZM249.592 334.28V335.888H255.016V339.464H249.592V341.048H257.536V334.28H249.592ZM244.768 326.888V328.568H249.784V331.712H244.768V333.368H252.376V326.888H244.768ZM244.792 329.36V330.896H250.528V329.36H244.792ZM249.592 336.872V338.432H256.168V336.872H249.592ZM255.376 329.36V330.896H261.256V329.36H255.376ZM260.92 326.888H253.792V333.368H260.92V331.712H256.384V328.568H260.92V326.888ZM260.272 326.888V340.232C260.272 340.568 260.152 340.664 259.792 340.688C259.432 340.688 258.208 340.712 257.128 340.64C257.464 341.336 257.824 342.416 257.92 343.136C259.696 343.16 260.968 343.112 261.832 342.704C262.696 342.296 262.96 341.6 262.96 340.256V326.888H260.272ZM245.08 322.328V324.488H252.64V322.328H245.08ZM254.728 322.328V324.488H263.944V322.328H254.728ZM245.176 320.432C244.432 322.232 243.088 324.056 241.624 325.232C242.272 325.592 243.424 326.336 243.976 326.792C245.392 325.448 246.928 323.288 247.864 321.152L245.176 320.432ZM254.992 320.432C254.272 322.256 252.88 324.056 251.32 325.208C252.016 325.496 253.24 326.144 253.84 326.552C255.28 325.28 256.84 323.216 257.728 321.104L254.992 320.432ZM245.968 324.128C246.496 324.944 247.072 326.048 247.288 326.744L249.784 326.048C249.52 325.328 248.896 324.272 248.344 323.504L245.968 324.128ZM256.72 324.128C257.392 324.944 258.112 326.072 258.424 326.792L260.992 326.072C260.632 325.328 259.84 324.224 259.168 323.456L256.72 324.128ZM278.832 331.496C280.056 333.224 281.328 335.552 281.76 337.04L284.28 335.744C283.752 334.208 282.384 331.976 281.136 330.32L278.832 331.496ZM279.624 324.704V327.416H288.24V324.704H279.624ZM287.016 324.704V325.28C286.728 335.048 286.392 339.104 285.6 339.92C285.336 340.256 285.048 340.328 284.568 340.328C283.944 340.328 282.552 340.328 281.04 340.208C281.568 341.024 281.952 342.272 282 343.088C283.416 343.16 284.88 343.16 285.768 343.04C286.776 342.872 287.424 342.608 288.096 341.696C289.104 340.424 289.416 336.608 289.776 326.024C289.8 325.664 289.8 324.704 289.8 324.704H287.016ZM279.768 320.6C278.976 323.744 277.512 326.888 275.688 328.784C276.408 329.192 277.68 330.056 278.256 330.536C280.08 328.352 281.736 324.824 282.744 321.248L279.768 320.6ZM271.32 320.648C270.768 322.328 269.736 324.632 268.872 326.072L270.816 326.864C271.752 325.544 272.88 323.408 273.864 321.536L271.32 320.648ZM274.2 323.48C272.928 326.048 270.744 329.576 268.896 331.736L270.648 332.624C272.496 330.584 274.848 327.248 276.624 324.488L274.2 323.48ZM267.624 326.336C268.848 327.488 270.312 329.144 270.912 330.296L272.376 328.04C271.752 326.984 270.264 325.448 268.968 324.344L267.624 326.336ZM273.6 329.264C274.512 330.92 275.4 333.104 275.688 334.472L277.872 333.464C277.56 332.072 276.6 329.984 275.64 328.376L273.6 329.264ZM267.6 331.208L267.84 333.704C270.216 333.56 273.336 333.344 276.36 333.104V330.824C273.144 330.992 269.832 331.136 267.6 331.208ZM274.032 335.288C274.608 336.752 275.232 338.696 275.448 339.944L277.704 339.128C277.416 337.904 276.768 336.032 276.144 334.592L274.032 335.288ZM268.632 334.736C268.44 336.776 268.056 338.912 267.36 340.328C267.96 340.568 269.04 341.072 269.544 341.384C270.24 339.848 270.768 337.448 271.008 335.144L268.632 334.736ZM271.416 332.48V343.184H273.984V332.48H271.416ZM293.48 332.912L294.2 335.672C296.48 335.072 299.384 334.28 302.12 333.512L301.784 330.92C298.784 331.664 295.616 332.456 293.48 332.912ZM293.84 325.16V327.824H301.832V325.16H293.84ZM296.744 320.624V340.136C296.744 340.472 296.624 340.592 296.288 340.592C295.976 340.592 294.992 340.592 294.056 340.568C294.416 341.288 294.776 342.44 294.848 343.16C296.528 343.16 297.68 343.088 298.472 342.656C299.264 342.224 299.528 341.504 299.528 340.16V320.624H296.744ZM302.384 326V343.112H305.12V328.736H312.896V342.968H315.776V326H302.384ZM304.112 332.192V334.88H313.688V332.192H304.112ZM304.184 338.624V341.384H313.784V338.624H304.184ZM307.592 320.672V340.304H310.304V320.672H307.592ZM327.856 331.088C326.896 332.792 325.288 334.424 323.704 335.528C324.16 336.008 324.88 337.088 325.144 337.568C326.944 336.2 328.864 333.992 330.04 331.832L327.856 331.088ZM327.328 327.368C326.608 328.496 325.192 329.864 323.872 330.704C324.352 331.088 325.072 331.832 325.456 332.288C326.92 331.28 328.528 329.672 329.608 328.136L327.328 327.368ZM321.904 321.608V328.712C321.904 332.528 321.736 337.976 319.552 341.672C320.248 341.936 321.472 342.608 322 343.064C324.304 339.104 324.664 332.864 324.664 328.712V321.608H321.904ZM323.896 321.608V323.816H337.864V325.088H323.896V327.296H340.672V321.608H323.896ZM329.68 330.8V333.08H341.752V330.8H329.68ZM332.08 339.896V342.176H341.776V339.896H332.08ZM330.736 327.872V343.16H333.136V327.872H330.736ZM334.432 327.704V338.12H340.336V327.848L338.056 327.824V335.744H336.64V327.704H334.432ZM326.128 333.992V343.088H328.504V332.648L327.688 332.432L326.128 333.992ZM356.136 322.424V340.712H358.872V323.288L356.136 322.424ZM354.408 340.28L355.416 343.016C357.552 342.44 360.216 341.72 362.688 341L362.328 338.504C359.448 339.176 356.424 339.872 354.408 340.28ZM365.424 320.6C363.36 321.56 359.928 322.448 356.832 323C357.192 323.6 357.576 324.632 357.72 325.28C361.008 324.752 364.848 323.936 367.68 322.808L365.424 320.6ZM357.672 329.528V332.264H368.328V329.528H357.672ZM361.512 323.528C361.68 332.96 361.944 341.264 364.752 342.68C366.48 343.856 368.28 342.896 368.712 338.696C368.112 338.312 367.128 337.52 366.624 336.968C366.552 338.96 366.36 340.256 366.072 340.112C364.632 339.536 364.224 331.688 364.272 323.528H361.512ZM349.416 332.408V343.136H351.96V332.408H349.416ZM349.344 320.6C348.792 322.28 347.76 324.608 346.872 326.048L348.84 326.912C349.752 325.544 350.904 323.432 351.888 321.56L349.344 320.6ZM352.248 323.504C350.976 326.12 348.744 329.624 346.92 331.808L348.6 332.768C350.472 330.704 352.824 327.344 354.6 324.632L352.248 323.504ZM345.624 326.336C346.848 327.464 348.312 329.12 348.888 330.248L350.352 327.992C349.728 326.936 348.216 325.424 346.968 324.344L345.624 326.336ZM351.744 329.216C352.704 330.848 353.64 333.008 353.928 334.376L356.112 333.368C355.776 331.976 354.768 329.912 353.76 328.328L351.744 329.216ZM345.552 331.184L345.936 333.728C348.336 333.464 351.432 333.152 354.408 332.816L354.36 330.56C351.12 330.8 347.784 331.064 345.552 331.184ZM352.104 335.312C352.656 336.68 353.232 338.456 353.448 339.608L355.704 338.792C355.464 337.664 354.84 335.936 354.264 334.592L352.104 335.312ZM346.656 334.688C346.464 336.728 346.08 338.888 345.408 340.304C346.008 340.52 347.088 341.024 347.592 341.336C348.264 339.8 348.792 337.4 349.032 335.12L346.656 334.688ZM378.32 325.376V327.416H387.656V325.376H378.32ZM383 323.024C385.184 325.112 389.168 327.368 392.336 328.544C392.768 327.752 393.44 326.744 394.064 326.096C390.512 325.112 386.864 323.168 384.248 320.696H381.488C379.592 322.808 375.8 325.232 372.008 326.504C372.56 327.104 373.232 328.184 373.544 328.832C377.24 327.392 380.936 325.088 383 323.024ZM378.392 330.368H387.488V331.712H378.392V330.368ZM375.824 328.424V333.632H390.2V328.424H375.824ZM371.984 340.016V342.512H393.968V340.016H371.984ZM374.552 334.736V341.288H377.24V336.968H379.256V341.288H381.896V336.968H383.936V341.288H386.576V336.968H388.664V341.288H391.496V334.736H374.552Z" fill="#171614"/>
<path d="M727.616 336.608V338.936H739.28V336.608H727.616ZM727.712 322.712V325.04H739.208V322.712H727.712ZM732.056 320.6V323.984H734.816V320.6H732.056ZM731.456 327.992H735.44V329.312H731.456V327.992ZM728.96 326V331.304H738.056V326H728.96ZM728.504 332.192V334.376H736.616V332.192H728.504ZM732.056 335.24V340.496C732.056 340.76 731.96 340.832 731.648 340.832C731.336 340.856 730.208 340.856 729.248 340.808C729.584 341.48 729.896 342.464 729.992 343.16C731.624 343.16 732.776 343.136 733.64 342.8C734.528 342.44 734.744 341.792 734.744 340.592V335.24H732.056ZM735.536 332.192V332.624C734.912 333.512 733.592 334.76 732.392 335.504C732.728 335.816 733.376 336.464 733.64 336.872C735.392 336.008 737.12 334.616 738.344 333.32L736.76 332.048L736.208 332.192H735.536ZM717.344 326.384V343.136H719.504V328.76H725.024V342.8H727.304V326.384H717.344ZM718.328 335.672V337.832H726.2V335.672H718.328ZM718.328 339.32V341.528H726.2V339.32H718.328ZM717.104 321.632V324.032H727.4V321.632H717.104ZM719.936 322.328V328.16H721.808V322.328H719.936ZM722.72 322.328V328.16H724.616V322.328H722.72ZM720.44 328.136V330.44C720.44 331.496 720.32 332.744 719.36 333.776C719.648 333.944 720.224 334.424 720.464 334.712C721.592 333.536 721.832 331.808 721.832 330.464V328.136H720.44ZM722.696 328.136V331.808C722.696 333.248 723.008 333.608 724.112 333.608C724.304 333.608 724.736 333.608 724.928 333.608C725.696 333.608 726.152 333.32 726.32 332.6C725.888 332.504 725.312 332.312 725.048 332.048C725 332.12 724.952 332.12 724.712 332.12C724.616 332.12 724.376 332.12 724.304 332.12C724.112 332.12 724.088 332.096 724.088 331.784V328.136H722.696ZM743.296 322.064V324.416H764.752V322.064H743.296ZM748.336 326.48V328.904H764.968V326.48H748.336ZM744.808 330.416V332.696H748V330.416H744.808ZM742.72 334.136V336.464H747.88V334.136H742.72ZM751.168 338.792V340.592H757.408V338.792H751.168ZM748.576 320.624V325.64H751.432V320.624H748.576ZM756.496 320.624V325.712H759.352V320.624H756.496ZM753.568 330.872V333.584H755.464V330.872H753.568ZM743.704 326.744V333.176H745.792V326.744H743.704ZM753.568 336.752V339.464H755.464V336.752H753.568ZM751.432 332.768V334.448H755.32V335.864H751.432V337.544H757.288V332.768H751.432ZM750.256 329.816V341.936H752.248V331.616H757.216V329.816H750.256ZM747.064 326.48V333.68C747.064 336.32 746.968 339.704 745.72 342.056C746.32 342.272 747.4 342.848 747.856 343.232C749.224 340.664 749.44 336.68 749.44 333.704V326.48H747.064ZM757.288 325.088C757.576 336.032 759.28 343.184 762.64 343.184C764.416 343.184 765.184 342.512 765.496 338.888C764.896 338.672 764.128 338.144 763.624 337.64C763.504 339.944 763.264 340.664 762.856 340.688C761.608 340.688 759.832 335.144 759.856 325.088H757.288ZM760.792 325.472C761.536 326 762.376 326.768 762.76 327.32L764.536 325.976C764.128 325.424 763.216 324.704 762.472 324.224L760.792 325.472ZM761.68 329.768C760.72 334.952 758.608 339.08 755.032 341.504C755.632 341.888 756.688 342.776 757.12 343.232C760.696 340.448 763.024 335.96 764.224 330.2L761.68 329.768ZM743.872 335.024V336.992C743.872 338.36 743.704 340.568 742.504 342.032C742.96 342.272 743.752 342.824 744.136 343.16C745.648 341.456 745.888 338.72 745.888 337.064V335.024H743.872ZM773.952 320.528C772.92 323.648 771.048 326.72 768.888 328.592C769.584 329 770.808 329.96 771.36 330.464C773.496 328.304 775.608 324.848 776.88 321.272L773.952 320.528ZM774.456 323.264L773.064 326.048H789.72V323.264H774.456ZM772.752 328.928V336.656H775.656V331.616H789.168V328.928H772.752ZM768.96 335.24V338.024H791.04V335.24H768.96ZM779.808 324.704V343.16H782.784V324.704H779.808ZM795.056 330.176V332.6H816.92V330.176H795.056ZM795.392 337.856V340.328H816.656V337.856H795.392ZM796.904 326.408V328.784H815.24V326.408H796.904ZM796.64 334.112V336.464H815.528V334.112H796.64ZM804.464 327.344V343.16H807.32V327.344H804.464ZM799.328 327.632V335.24H801.992V327.632H799.328ZM809.96 327.632V335.24H812.624V327.632H809.96ZM800.336 320.624V325.88H803.168V320.624H800.336ZM808.664 320.624V325.88H811.496V320.624H808.664ZM795.32 321.968V324.512H816.68V321.968H795.32ZM832.12 338.288C832.576 339.128 833.008 340.328 833.104 341.096L835.432 340.4C835.288 339.656 834.856 338.528 834.328 337.712L832.12 338.288ZM838.456 337.64C838.216 338.456 837.76 339.632 837.376 340.424L839.512 341.048C839.896 340.352 840.424 339.368 840.952 338.312L838.456 337.64ZM833.416 334.976H839.392V336.2H833.416V334.976ZM831.04 333.296V337.88H841.864V333.296H831.04ZM832.576 326.672H840.136V327.752H832.576V326.672ZM832.576 323.936H840.136V325.016H832.576V323.936ZM830.272 322.16V329.528H842.56V322.16H830.272ZM829.936 330.32V332.48H842.944V330.32H829.936ZM829.456 340.592V342.704H843.28V340.592H829.456ZM833.488 320.624V323.48H835.624V320.624H833.488ZM837.04 320.624V323.48H839.176V320.624H837.04ZM833.92 322.976V329.168H835.6V322.976H833.92ZM837.04 322.976V329.168H838.72V322.976H837.04ZM820.984 326.912V329.408H829.408V326.912H820.984ZM821.56 322.136V324.608H828.928V322.136H821.56ZM827.488 330.608V339.56H829.312V330.608H827.488ZM824.128 328.16V343.16H826.504V328.16H824.128ZM821.32 330.656V333.464C821.32 335.552 821.2 338 820.552 339.944C821.056 340.208 821.8 340.784 822.16 341.168C823.024 338.864 823.144 336.008 823.144 333.536V330.656H821.32ZM853.32 325.376V327.416H862.656V325.376H853.32ZM858 323.024C860.184 325.112 864.168 327.368 867.336 328.544C867.768 327.752 868.44 326.744 869.064 326.096C865.512 325.112 861.864 323.168 859.248 320.696H856.488C854.592 322.808 850.8 325.232 847.008 326.504C847.56 327.104 848.232 328.184 848.544 328.832C852.24 327.392 855.936 325.088 858 323.024ZM853.392 330.368H862.488V331.712H853.392V330.368ZM850.824 328.424V333.632H865.2V328.424H850.824ZM846.984 340.016V342.512H868.968V340.016H846.984ZM849.552 334.736V341.288H852.24V336.968H854.256V341.288H856.896V336.968H858.936V341.288H861.576V336.968H863.664V341.288H866.496V334.736H849.552Z" fill="#171614"/>
<path d="M162.56 23.14H172.78V25.22H162.56V23.14ZM161.88 26.98H173.38V29.1H161.88V26.98ZM161.92 30.8H173.24V32.9H161.92V30.8ZM166.42 21H168.78V28.34H166.42V21ZM168.96 28.98H171.3V37.26C171.3 38.42 171.08 39.04 170.3 39.38C169.5 39.74 168.42 39.78 166.92 39.78C166.84 39.12 166.48 38.16 166.16 37.54C167.14 37.58 168.24 37.58 168.54 37.56C168.86 37.56 168.96 37.5 168.96 37.22V28.98ZM162.72 34.24L164.64 33.14C165.58 34.12 166.64 35.44 167.08 36.42L165.02 37.62C164.64 36.68 163.64 35.26 162.72 34.24ZM156.38 22.24H161.54V35.92H156.38V33.78H159.3V24.38H156.38V22.24ZM156.5 27.92H160.38V30.02H156.5V27.92ZM155.26 22.24H157.48V37.7H155.26V22.24ZM184.72 21.02H187.2V27.84H184.72V21.02ZM178.02 22.4L180.16 21.52C181.16 22.7 182.18 24.3 182.64 25.44L180.4 26.48C180 25.36 178.98 23.64 178.02 22.4ZM191.6 21.34L194 22.18C193.1 23.74 192.02 25.4 191.14 26.46L189.12 25.66C189.98 24.52 191.02 22.7 191.6 21.34ZM182.3 30.36H184.48V37.66H182.3V30.36ZM183.6 30.36H189.72V36.4H183.6V34.4H187.5V32.36H183.6V30.36ZM178.18 26.72H193V28.96H180.58V39.8H178.18V26.72ZM191.52 26.72H193.88V37.16C193.88 38.3 193.66 38.96 192.88 39.34C192.12 39.7 191.04 39.74 189.54 39.74C189.44 39.08 189.1 38.08 188.76 37.46C189.72 37.5 190.8 37.5 191.12 37.5C191.42 37.5 191.52 37.4 191.52 37.12V26.72ZM208.42 25.48H217.28V27.78H208.42V25.48ZM199.4 23.32H207.66V25.46H199.4V23.32ZM199.26 31.8H207.86V33.94H199.26V31.8ZM198.84 27.42H208.04V29.6H198.84V27.42ZM213.14 21.22H215.52V37.02C215.52 38.28 215.24 38.92 214.5 39.3C213.74 39.68 212.62 39.78 211 39.78C210.9 39.12 210.48 38.06 210.12 37.42C211.22 37.46 212.3 37.46 212.66 37.46C213.02 37.46 213.14 37.34 213.14 37.02V21.22ZM208.62 29.88L210.64 29.14C211.28 30.54 212.12 32.44 212.52 33.56L210.34 34.46C210 33.3 209.24 31.36 208.62 29.88ZM202.4 21.02H204.72V28.54H202.4V21.02ZM202.4 30.04H204.72V37.64H202.4V30.04ZM198.58 36.68C201.06 36.42 204.86 35.94 208.32 35.5L208.42 37.72C205.06 38.2 201.46 38.68 198.86 39.04L198.58 36.68ZM222.1 22.98H237.92V39.38H235.28V25.42H224.62V39.4H222.1V22.98ZM223.3 35.3H236.92V37.78H223.3V35.3ZM250.72 29.18H253.16V32.08H250.72V29.18ZM250.62 31.78L252.58 32.64C250.58 34.64 247.24 36.12 243.84 36.74C243.54 36.22 242.94 35.4 242.48 34.96C245.72 34.46 248.98 33.3 250.62 31.78ZM253.88 31.86C254.98 34.98 257.36 36.96 261.42 37.68C260.9 38.18 260.26 39.14 259.96 39.8C255.48 38.78 253.1 36.34 251.68 32.3L253.88 31.86ZM258.7 33.1L260.56 34.52C259.28 35.3 257.68 36.06 256.5 36.5L254.92 35.2C256.1 34.7 257.74 33.78 258.7 33.1ZM244.96 37.66C247.28 37.44 250.82 37.04 254.12 36.66L254.16 38.64C251.04 39.02 247.68 39.42 245.28 39.72L244.96 37.66ZM243 31.06H261V33.14H243V31.06ZM248.76 24.4L260.8 23.28L261.04 25.24L249.02 26.42L248.76 24.4ZM255.74 22.42L256.76 21.06C257.82 21.3 259.32 21.78 260.12 22.14L259.06 23.66C258.32 23.26 256.84 22.72 255.74 22.42ZM252.04 21.16H254.4C254.68 25.14 256.74 28.4 258.72 28.38C259.22 28.38 259.38 27.86 259.48 26.48C259.98 26.92 260.78 27.32 261.38 27.5C261.06 30.1 260.28 30.64 258.6 30.64C255.08 30.64 252.42 26.52 252.04 21.16ZM247.54 21.02L249.8 21.78C248.4 24.2 246.1 26.46 243.92 27.86C243.56 27.4 242.72 26.48 242.22 26.06C244.36 24.92 246.4 23.06 247.54 21.02ZM245.7 24.74L247.34 23.1L248 23.32V30.36H245.7V24.74ZM247.28 35.04L248.86 33.46L249.58 33.7V38.4H247.28V35.04Z" fill="#171614"/>
</svg>
