<svg width="100" height="32" viewBox="0 0 100 32" fill="none" xmlns="http://www.w3.org/2000/svg">
<rect width="100" height="32" rx="4" fill="white"/>
<path d="M30.048 15.488V23.488H31.888V16.944H37.68V23.488H39.616V15.488H30.048ZM26.864 13.312V14.816H41.12V13.312H26.864ZM27.984 11.168V12.624H40.24V11.168H27.984ZM31.296 17.616V18.832H38.464V17.616H31.296ZM31.296 19.52V20.72H38.464V19.52H31.296ZM31.072 21.456V22.912H38.464V21.456H31.072ZM39.072 8.464C36.368 8.912 31.728 9.104 27.808 9.104C27.968 9.488 28.144 10.128 28.176 10.544C32.144 10.576 36.912 10.384 40.192 9.84L39.072 8.464ZM32.256 9.792C31.504 13.248 29.744 16.768 26.352 18.592C26.736 18.96 27.296 19.68 27.552 20.112C31.248 17.984 33.168 14.176 34.256 10.192L32.256 9.792ZM42.96 9.136V10.848H57.056V9.136H42.96ZM49.12 9.872V16.304C49.12 18.864 48.384 20.88 42.608 21.76C43.024 22.192 43.568 23.024 43.776 23.456C49.808 22.256 51.136 19.568 51.136 16.336V9.872H49.12ZM46.16 15.808H54.128V16.864H46.16V15.808ZM46.16 13.344H54.128V14.368H46.16V13.344ZM44.352 11.792V18.4H56.048V11.792H44.352ZM46.256 18.336L44.576 19.008C47.024 22.64 51.248 23.168 56.896 23.28C56.992 22.64 57.36 21.824 57.696 21.376C52.24 21.424 48.496 21.2 46.256 18.336ZM61.84 12.384C62.816 12.896 64.064 13.696 64.64 14.256L66 13.072C65.376 12.512 64.096 11.776 63.136 11.312L61.84 12.384ZM69.056 9.616V9.888C67.472 12.88 63.152 14.8 58.832 15.488C59.168 15.904 59.552 16.656 59.712 17.136C64.368 16.192 68.896 14.112 70.976 10.256L69.728 9.536L69.424 9.616H69.056ZM64 9.616V11.184H69.488V9.616H64ZM64.88 8.368C63.792 9.68 61.808 11.024 58.96 11.952C59.376 12.256 59.968 12.912 60.24 13.36C63.232 12.176 65.344 10.672 66.976 8.816L64.88 8.368ZM64.016 18.448C65.008 19.024 66.256 19.92 66.816 20.528L68.304 19.344C67.664 18.72 66.384 17.904 65.408 17.376L64.016 18.448ZM71.072 15.456V15.728C69.584 19.504 65.248 21.184 60.176 21.712C60.496 22.144 60.848 22.928 60.992 23.456C66.496 22.688 71.12 20.8 73.072 16.032L71.792 15.376L71.456 15.456H71.072ZM66.368 15.456V17.056H71.584V15.456H66.368ZM67.488 13.904C66.256 15.424 63.968 16.96 60.624 17.968C61.024 18.304 61.568 19.008 61.792 19.456C65.328 18.176 67.792 16.48 69.584 14.384L67.488 13.904Z" fill="#DE7B3B"/>
</svg>
