<svg width="100" height="32" viewBox="0 0 100 32" fill="none" xmlns="http://www.w3.org/2000/svg">
<rect width="100" height="32" rx="12" fill="white"/>
<path d="M25.8918 15.488V23.488H27.7318V16.944H33.5238V23.488H35.4598V15.488H25.8918ZM22.7078 13.312V14.816H36.9638V13.312H22.7078ZM23.8278 11.168V12.624H36.0838V11.168H23.8278ZM27.1398 17.616V18.832H34.3078V17.616H27.1398ZM27.1398 19.52V20.72H34.3078V19.52H27.1398ZM26.9158 21.456V22.912H34.3078V21.456H26.9158ZM34.9158 8.464C32.2118 8.912 27.5718 9.104 23.6518 9.104C23.8118 9.488 23.9878 10.128 24.0198 10.544C27.9878 10.576 32.7558 10.384 36.0358 9.84L34.9158 8.464ZM28.0998 9.792C27.3478 13.248 25.5878 16.768 22.1958 18.592C22.5798 18.96 23.1398 19.68 23.3958 20.112C27.0918 17.984 29.0118 14.176 30.0998 10.192L28.0998 9.792ZM42.96 9.136V10.848H57.056V9.136H42.96ZM49.12 9.872V16.304C49.12 18.864 48.384 20.88 42.608 21.76C43.024 22.192 43.568 23.024 43.776 23.456C49.808 22.256 51.136 19.568 51.136 16.336V9.872H49.12ZM46.16 15.808H54.128V16.864H46.16V15.808ZM46.16 13.344H54.128V14.368H46.16V13.344ZM44.352 11.792V18.4H56.048V11.792H44.352ZM46.256 18.336L44.576 19.008C47.024 22.64 51.248 23.168 56.896 23.28C56.992 22.64 57.36 21.824 57.696 21.376C52.24 21.424 48.496 21.2 46.256 18.336ZM65.9963 12.384C66.9723 12.896 68.2203 13.696 68.7963 14.256L70.1562 13.072C69.5323 12.512 68.2523 11.776 67.2923 11.312L65.9963 12.384ZM73.2123 9.616V9.888C71.6283 12.88 67.3083 14.8 62.9883 15.488C63.3243 15.904 63.7083 16.656 63.8683 17.136C68.5243 16.192 73.0523 14.112 75.1323 10.256L73.8843 9.536L73.5803 9.616H73.2123ZM68.1563 9.616V11.184H73.6443V9.616H68.1563ZM69.0363 8.368C67.9483 9.68 65.9643 11.024 63.1163 11.952C63.5323 12.256 64.1243 12.912 64.3963 13.36C67.3883 12.176 69.5003 10.672 71.1323 8.816L69.0363 8.368ZM68.1723 18.448C69.1643 19.024 70.4123 19.92 70.9722 20.528L72.4603 19.344C71.8203 18.72 70.5403 17.904 69.5643 17.376L68.1723 18.448ZM75.2283 15.456V15.728C73.7403 19.504 69.4043 21.184 64.3323 21.712C64.6523 22.144 65.0043 22.928 65.1483 23.456C70.6523 22.688 75.2763 20.8 77.2283 16.032L75.9483 15.376L75.6123 15.456H75.2283ZM70.5243 15.456V17.056H75.7403V15.456H70.5243ZM71.6443 13.904C70.4123 15.424 68.1243 16.96 64.7803 17.968C65.1803 18.304 65.7243 19.008 65.9483 19.456C69.4843 18.176 71.9483 16.48 73.7403 14.384L71.6443 13.904Z" fill="#DE7B3B"/>
</svg>
