<svg width="100" height="32" viewBox="0 0 100 32" fill="none" xmlns="http://www.w3.org/2000/svg">
<rect x="0.25" y="0.25" width="99.5" height="31.5" rx="3.75" fill="#DE7B3B"/>
<path d="M30.048 15.488H39.616V23.488H37.68V16.944H31.888V23.488H30.048V15.488ZM26.864 13.312H41.12V14.816H26.864V13.312ZM27.984 11.168H40.24V12.624H27.984V11.168ZM31.296 17.616H38.464V18.832H31.296V17.616ZM31.296 19.52H38.464V20.72H31.296V19.52ZM31.072 21.456H38.464V22.912H31.072V21.456ZM39.072 8.464L40.192 9.84C36.912 10.384 32.144 10.576 28.176 10.544C28.144 10.128 27.968 9.488 27.808 9.104C31.728 9.104 36.368 8.912 39.072 8.464ZM32.256 9.792L34.256 10.192C33.168 14.176 31.248 17.984 27.552 20.112C27.296 19.68 26.736 18.96 26.352 18.592C29.744 16.768 31.504 13.248 32.256 9.792ZM42.96 9.136H57.056V10.848H42.96V9.136ZM49.12 9.872H51.136V16.336C51.136 19.568 49.808 22.256 43.776 23.456C43.568 23.024 43.024 22.192 42.608 21.76C48.384 20.88 49.12 18.864 49.12 16.304V9.872ZM46.16 15.808V16.864H54.128V15.808H46.16ZM46.16 13.344V14.368H54.128V13.344H46.16ZM44.352 11.792H56.048V18.4H44.352V11.792ZM46.256 18.336C48.496 21.2 52.24 21.424 57.696 21.376C57.36 21.824 56.992 22.64 56.896 23.28C51.248 23.168 47.024 22.64 44.576 19.008L46.256 18.336ZM61.84 12.384L63.136 11.312C64.096 11.776 65.376 12.512 66 13.072L64.64 14.256C64.064 13.696 62.816 12.896 61.84 12.384ZM69.056 9.616H69.424L69.728 9.536L70.976 10.256C68.896 14.112 64.368 16.192 59.712 17.136C59.552 16.656 59.168 15.904 58.832 15.488C63.152 14.8 67.472 12.88 69.056 9.888V9.616ZM64 9.616H69.488V11.184H64V9.616ZM64.88 8.368L66.976 8.816C65.344 10.672 63.232 12.176 60.24 13.36C59.968 12.912 59.376 12.256 58.96 11.952C61.808 11.024 63.792 9.68 64.88 8.368ZM64.016 18.448L65.408 17.376C66.384 17.904 67.664 18.72 68.304 19.344L66.816 20.528C66.256 19.92 65.008 19.024 64.016 18.448ZM71.072 15.456H71.456L71.792 15.376L73.072 16.032C71.12 20.8 66.496 22.688 60.992 23.456C60.848 22.928 60.496 22.144 60.176 21.712C65.248 21.184 69.584 19.504 71.072 15.728V15.456ZM66.368 15.456H71.584V17.056H66.368V15.456ZM67.488 13.904L69.584 14.384C67.792 16.48 65.328 18.176 61.792 19.456C61.568 19.008 61.024 18.304 60.624 17.968C63.968 16.96 66.256 15.424 67.488 13.904Z" fill="white"/>
<rect x="0.25" y="0.25" width="99.5" height="31.5" rx="3.75" stroke="#DE7B3B" stroke-width="0.5"/>
</svg>
