<svg width="60" height="60" viewBox="0 0 60 60" fill="none" xmlns="http://www.w3.org/2000/svg">
<g clip-path="url(#clip0_202_6748)">
<mask id="mask0_202_6748" style="mask-type:alpha" maskUnits="userSpaceOnUse" x="0" y="0" width="60" height="60">
<circle cx="30" cy="30" r="30" fill="#C4C4C4"/>
</mask>
<g mask="url(#mask0_202_6748)">
<g clip-path="url(#clip1_202_6748)">
<rect x="-9" y="-10" width="78" height="78" fill="#C29891"/>
</g>
<path fill-rule="evenodd" clip-rule="evenodd" d="M22.9354 17.0488L25.1087 18.9934L21.2802 18.9934C20.794 18.7332 20.6785 18.4789 20.6429 18.3717C20.6146 18.2862 20.6068 18.1997 20.6131 18.1186C20.6163 18.0782 20.6228 18.0424 20.6302 18.0136C20.6339 17.9993 20.6375 17.9878 20.6404 17.9793L20.6441 17.9696L20.6451 17.967L20.6455 17.9661L20.6455 17.9661L20.6478 17.9611L20.6478 17.9611C21.1326 16.8838 21.633 16.7533 21.8672 16.7283C22.2218 16.6904 22.6439 16.8448 22.9354 17.0488ZM18.0142 16.7736C18.8295 14.9633 20.1041 14.0112 21.5606 13.8557C22.8796 13.7149 24.04 14.265 24.7111 14.7684L24.7611 14.8058L24.8076 14.8475L28.2382 17.9169L28.5175 18.1668H32.0075L32.2869 17.9169L35.7174 14.8475L35.7639 14.8058L35.8139 14.7684C36.485 14.265 37.6454 13.7149 38.9644 13.8557C40.4209 14.0112 41.6955 14.9633 42.5108 16.7736C42.7886 17.3867 42.9452 18.3129 42.6242 19.281C42.3981 19.9626 41.9638 20.5814 41.3104 21.087C43.0793 21.3204 44.4444 22.8342 44.4444 24.6668L44.4444 31.1667H31.4444V21.7778H28.7194V21.8822H28.5556V31.1667H15.5556V34.0555H28.5556V44.1667H31.4444V34.0555H44.4444L44.4444 40.5557C44.4444 42.5501 42.8277 44.1668 40.8333 44.1668H19.1666C17.1723 44.1668 15.5555 42.5501 15.5555 40.5557V24.6668C15.5555 22.6725 17.1723 21.0557 19.1667 21.0557H19.1746C18.5435 20.556 18.1222 19.9486 17.9008 19.281C17.5798 18.3129 17.7364 17.3867 18.0142 16.7736ZM35.4163 18.9934L37.5896 17.0488C37.8811 16.8448 38.3032 16.6904 38.6578 16.7283C38.892 16.7533 39.3924 16.8838 39.8772 17.9611L39.8795 17.9661L39.8799 17.967L39.8809 17.9696L39.8846 17.9793C39.8875 17.9878 39.8911 17.9993 39.8948 18.0136C39.9022 18.0424 39.9087 18.0782 39.9119 18.1186C39.9182 18.1997 39.9104 18.2862 39.8821 18.3717C39.8465 18.4789 39.731 18.7332 39.2448 18.9934H35.4163Z" fill="#6C262B"/>
<rect x="15.5555" y="31.1667" width="28.8889" height="2.88889" fill="white"/>
<rect x="31.4445" y="21.0555" width="23.1111" height="2.88889" transform="rotate(90 31.4445 21.0555)" fill="white"/>
</g>
</g>
<defs>
<clipPath id="clip0_202_6748">
<rect width="60" height="60" fill="white"/>
</clipPath>
<clipPath id="clip1_202_6748">
<rect width="78" height="78" fill="white" transform="translate(-9 -10)"/>
</clipPath>
</defs>
</svg>
